<svg width="27" height="36" viewBox="0 0 27 36" fill="none" xmlns="http://www.w3.org/2000/svg">
<path d="M3.27717 13.475L3.27217 13.4825L3.25967 13.4975L3.22217 13.5475L3.09217 13.725C2.98467 13.875 2.83967 14.0925 2.66967 14.365C2.21877 15.102 1.83234 15.8765 1.51467 16.68C0.739668 18.63 0.114668 21.3925 0.812168 24.5225C1.47217 27.4975 2.74717 30.2575 4.95717 32.2825C7.18717 34.3225 10.2497 35.5 14.2597 35.5C18.3022 35.5 21.4697 34.1425 23.6172 31.8175C25.7472 29.5075 26.7597 26.3675 26.7597 23C26.7597 20.8525 26.0447 18.7775 25.0847 16.84C24.1722 14.995 22.9872 13.18 21.8747 11.4725L21.7097 11.2225C20.5272 9.41 19.4522 7.735 18.7347 6.14C18.0222 4.5475 17.7422 3.19 17.9822 1.995C18.0184 1.81372 18.014 1.62666 17.9692 1.4473C17.9244 1.26794 17.8405 1.10074 17.7233 0.957748C17.6061 0.814757 17.4587 0.699533 17.2916 0.620379C17.1246 0.541225 16.942 0.500112 16.7572 0.5C15.7022 0.5 13.9422 0.87 12.2747 1.7325C10.5922 2.605 8.83467 4.065 8.06967 6.355C7.09467 9.28 8.21967 12.58 9.17717 14.6625C9.60467 15.5875 9.23467 16.6125 8.52717 16.9675C8.36816 17.0474 8.19494 17.0951 8.01746 17.1079C7.83997 17.1207 7.6617 17.0984 7.49286 17.0422C7.32402 16.986 7.16793 16.897 7.03353 16.7804C6.89914 16.6638 6.78908 16.5217 6.70967 16.3625L5.37467 13.69C5.28064 13.502 5.14072 13.3407 4.96783 13.2211C4.79495 13.1015 4.5947 13.0274 4.38559 13.0057C4.17649 12.9841 3.9653 13.0155 3.77156 13.0971C3.57781 13.1786 3.40777 13.3103 3.27717 13.475Z" fill="#5EA9BE"/>
</svg>
