<svg width="660" height="659" viewBox="0 0 660 659" fill="none" xmlns="http://www.w3.org/2000/svg">
<path d="M329.38 596.968C481.033 596.968 603.972 525.986 603.972 438.426C603.972 350.866 481.033 279.884 329.38 279.884C177.727 279.884 54.7881 350.866 54.7881 438.426C54.7881 525.986 177.727 596.968 329.38 596.968Z" fill="#5EA9BE"/>
<path opacity="0.1" d="M229.832 432.218C225.588 434.735 221.014 437.635 219.446 442.314C218.585 445.226 218.714 448.341 219.815 451.171C224.257 463.929 240.165 469.517 245.569 481.893C248.429 488.483 247.888 495.891 248.205 502.981C248.521 510.072 250.129 517.928 255.783 522.303C258.578 524.257 261.768 525.571 265.128 526.152C277.292 528.762 289.974 527.351 301.267 522.132C319.126 513.815 331.371 497.011 347.266 485.386C356.338 478.744 366.556 473.829 377.408 470.888C387.029 468.452 396.902 467.151 406.826 467.013C412.098 466.868 418.266 466.407 420.994 461.926C424.817 455.639 418.359 448.205 412.638 443.645C417.779 440.917 423.973 441.747 429.772 441.958C435.572 442.169 442.254 441.22 445.588 436.422C448.383 432.35 447.697 426.643 445.101 422.452C442.504 418.26 438.326 415.308 434.109 412.764C400.803 392.652 359.76 391.004 320.892 392.586C311.574 392.968 302.15 393.522 293.214 396.303C269.583 403.776 250.92 419.803 229.832 432.218Z" fill="black"/>
<path d="M141.104 75.5159L129.545 82.1982C129.545 81.6051 129.637 81.012 129.637 80.432V76.5703C129.637 69.6903 125.459 66.5271 120.292 69.5058C118.014 70.9355 116.104 72.8815 114.717 75.1864C113.874 66.4612 107.995 62.7181 100.852 66.8303C93.1416 71.2983 86.8811 83.2526 86.8811 93.5461V99.3322C86.8374 101.649 87.2355 103.952 88.0541 106.12L78.459 111.655C75.599 113.316 73.2793 117.745 73.2793 121.567C73.2793 125.389 75.599 127.129 78.459 125.521L141.104 89.3549C143.964 87.7074 146.283 83.2657 146.283 79.4435C146.283 75.6213 143.964 73.8684 141.104 75.5159Z" fill="#EBEBEB"/>
<path d="M215.334 95.7076L206.609 100.742C206.661 100.305 206.687 99.8649 206.688 99.4244V96.4984C206.688 91.3055 203.524 88.9199 199.636 91.2264C197.916 92.3015 196.475 93.7696 195.432 95.5099C194.786 88.9199 190.358 86.0994 184.967 89.2099C179.141 92.5708 174.423 101.599 174.423 109.362V113.738C174.392 115.493 174.696 117.237 175.319 118.878L168.07 123.056C166.872 123.906 165.891 125.024 165.204 126.322C164.517 127.62 164.145 129.061 164.116 130.529C164.116 133.416 165.869 134.734 168.07 133.495L215.334 106.12C216.533 105.269 217.516 104.148 218.203 102.848C218.89 101.548 219.261 100.104 219.288 98.6336C219.288 95.7867 217.535 94.4555 215.334 95.7076Z" fill="#EBEBEB"/>
<path d="M538.505 117.993C542.355 94.275 526.248 71.9269 502.531 68.0769C478.813 64.227 456.464 80.3331 452.615 104.051C448.765 127.769 464.871 150.117 488.589 153.967C512.307 157.817 534.655 141.711 538.505 117.993Z" fill="#F0997A"/>
<path d="M124.26 351.268L133.67 345.837C133.67 345.837 139.272 322.548 137.044 301.592C133.907 272.148 114.52 261.064 107.139 263.594C99.7581 266.125 97.6361 274.705 109.775 292.247C117.037 302.567 125.868 324.13 124.26 351.268Z" fill="#5EA9BE"/>
<path opacity="0.25" d="M124.26 351.268L133.67 345.837C133.67 345.837 139.272 322.548 137.044 301.592C133.907 272.148 114.52 261.064 107.139 263.594C99.7581 266.125 97.6361 274.705 109.775 292.247C117.037 302.567 125.868 324.13 124.26 351.268Z" fill="black"/>
<path d="M128.161 339.801H128.068C127.984 339.785 127.904 339.753 127.832 339.706C127.761 339.659 127.699 339.598 127.651 339.526C127.603 339.455 127.57 339.375 127.554 339.291C127.537 339.207 127.537 339.12 127.554 339.036C132.708 311.859 123.218 281.334 111.462 268.629C111.389 268.569 111.331 268.494 111.29 268.409C111.249 268.325 111.226 268.232 111.224 268.138C111.222 268.044 111.239 267.951 111.276 267.864C111.313 267.778 111.368 267.7 111.437 267.636C111.506 267.573 111.588 267.525 111.678 267.496C111.767 267.466 111.862 267.457 111.955 267.467C112.049 267.477 112.139 267.508 112.22 267.556C112.301 267.604 112.37 267.669 112.424 267.746C124.391 280.662 134.065 311.728 128.833 339.261C128.805 339.416 128.721 339.557 128.598 339.656C128.474 339.755 128.319 339.807 128.161 339.801Z" fill="white"/>
<path d="M99.5998 365.475C98.1105 366.24 94.1565 362.839 93.0098 362.022C91.1404 360.587 89.6665 358.701 88.7263 356.539C87.6709 354.075 87.4084 351.344 87.9751 348.724C88.2717 347.335 88.6682 345.97 89.1613 344.638C89.6094 343.32 90.0575 342.002 90.4793 340.684C91.001 339.431 91.2697 338.087 91.2701 336.73C91.0592 333.975 88.7131 331.932 86.5912 330.14C84.2319 328.176 81.8068 325.632 81.9914 322.337C82.3031 319.787 83.4473 317.41 85.2468 315.576C86.9207 313.652 88.8845 311.991 90.4134 309.948C91.615 308.536 92.2944 306.754 92.3377 304.9C92.2453 303.762 91.9225 302.654 91.3887 301.645C90.1446 299.54 89.0778 297.336 88.1991 295.055C87.5138 292.709 87.7774 289.849 89.6621 288.28C90.4972 287.72 91.4356 287.333 92.4224 287.141C93.4091 286.948 94.4244 286.955 95.4086 287.16C97.2936 287.45 99.0901 288.157 100.667 289.229C105.768 292.406 108.444 298.758 113.847 301.276C116 302.078 118.201 302.742 120.437 303.266C121.565 303.535 122.625 304.037 123.548 304.738C124.472 305.439 125.239 306.325 125.802 307.338C127.634 311.53 123.587 316.354 124.813 320.756C125.881 324.71 129.532 326.304 131.403 329.85C132.181 331.416 132.435 333.19 132.128 334.911C131.824 337.828 130.989 340.664 129.663 343.28C128.148 345.955 126.471 348.534 124.642 351.004L99.5998 365.475Z" fill="#5EA9BE"/>
<path opacity="0.1" d="M99.5998 365.475C98.1105 366.24 94.1565 362.839 93.0098 362.022C91.1404 360.587 89.6665 358.701 88.7263 356.539C87.6709 354.075 87.4084 351.344 87.9751 348.724C88.2717 347.335 88.6682 345.97 89.1613 344.638C89.6094 343.32 90.0575 342.002 90.4793 340.684C91.001 339.431 91.2697 338.087 91.2701 336.73C91.0592 333.975 88.7131 331.932 86.5912 330.14C84.2319 328.176 81.8068 325.632 81.9914 322.337C82.3031 319.787 83.4473 317.41 85.2468 315.576C86.9207 313.652 88.8845 311.991 90.4134 309.948C91.615 308.536 92.2944 306.754 92.3377 304.9C92.2453 303.762 91.9225 302.654 91.3887 301.645C90.1446 299.54 89.0778 297.336 88.1991 295.055C87.5138 292.709 87.7774 289.849 89.6621 288.28C90.4972 287.72 91.4356 287.333 92.4224 287.141C93.4091 286.948 94.4244 286.955 95.4086 287.16C97.2936 287.45 99.0901 288.157 100.667 289.229C105.768 292.406 108.444 298.758 113.847 301.276C116 302.078 118.201 302.742 120.437 303.266C121.565 303.535 122.625 304.037 123.548 304.738C124.472 305.439 125.239 306.325 125.802 307.338C127.634 311.53 123.587 316.354 124.813 320.756C125.881 324.71 129.532 326.304 131.403 329.85C132.181 331.416 132.435 333.19 132.128 334.911C131.824 337.828 130.989 340.664 129.663 343.28C128.148 345.955 126.471 348.534 124.642 351.004L99.5998 365.475Z" fill="black"/>
<path d="M114.006 357.963C113.919 357.957 113.835 357.933 113.757 357.893C113.68 357.854 113.611 357.8 113.555 357.733C113.498 357.667 113.456 357.591 113.429 357.508C113.402 357.425 113.392 357.338 113.4 357.251C115.785 331.419 105.03 302.212 96.5687 293.46C96.4628 293.332 96.4094 293.168 96.4191 293.002C96.4288 292.836 96.5009 292.68 96.621 292.565C96.7411 292.45 96.9002 292.385 97.0665 292.382C97.2328 292.379 97.394 292.44 97.5176 292.551C106.137 301.474 117.116 331.168 114.652 357.37C114.635 357.531 114.561 357.68 114.442 357.79C114.323 357.899 114.167 357.961 114.006 357.963Z" fill="white"/>
<path d="M111.435 326.107H111.251C105.199 324.12 98.9508 322.795 92.6142 322.153C92.5281 322.146 92.4442 322.122 92.3674 322.083C92.2906 322.043 92.2226 321.989 92.1673 321.922C92.112 321.856 92.0705 321.779 92.0454 321.696C92.0203 321.614 92.0121 321.527 92.0211 321.441C92.0259 321.354 92.0484 321.269 92.0875 321.192C92.1265 321.114 92.1811 321.045 92.2478 320.989C92.3146 320.934 92.3922 320.892 92.4756 320.868C92.5591 320.844 92.6466 320.837 92.7329 320.848C99.1836 321.508 105.543 322.869 111.699 324.907C111.779 324.937 111.852 324.981 111.914 325.039C111.976 325.097 112.027 325.166 112.062 325.243C112.098 325.32 112.118 325.404 112.121 325.489C112.124 325.573 112.111 325.658 112.081 325.738C112.023 325.857 111.93 325.956 111.815 326.022C111.7 326.088 111.568 326.117 111.435 326.107Z" fill="white"/>
<path d="M544.517 355.076L532.721 348.262C532.721 348.262 529.835 322.996 531.746 303.45C534.448 275.943 552.214 242.822 573.394 250.625C594.575 258.427 563.681 286.408 556.801 309.737C549.921 333.065 544.517 355.076 544.517 355.076Z" fill="#5EA9BE"/>
<path opacity="0.2" d="M544.517 355.076L532.721 348.262C532.721 348.262 529.835 322.996 531.746 303.45C534.448 275.943 552.214 242.822 573.394 250.625C594.575 258.427 563.681 286.408 556.801 309.737C549.921 333.065 544.517 355.076 544.517 355.076Z" fill="black"/>
<path d="M538.309 352.203C538.403 352.2 538.495 352.178 538.58 352.139C538.665 352.1 538.741 352.045 538.805 351.976C538.869 351.908 538.918 351.827 538.951 351.739C538.983 351.652 538.998 351.559 538.995 351.465C536.925 290.363 567.345 259.627 567.648 259.324C567.715 259.257 567.769 259.178 567.805 259.091C567.842 259.004 567.861 258.911 567.861 258.816C567.861 258.722 567.842 258.628 567.805 258.541C567.769 258.454 567.715 258.375 567.648 258.309C567.513 258.176 567.33 258.102 567.141 258.102C566.951 258.102 566.769 258.176 566.633 258.309C566.33 258.612 535.462 289.796 537.558 351.518C537.561 351.612 537.584 351.705 537.623 351.791C537.663 351.877 537.72 351.954 537.79 352.018C537.86 352.082 537.942 352.131 538.031 352.163C538.12 352.195 538.215 352.208 538.309 352.203Z" fill="white"/>
<path d="M551.937 359.32L543.515 354.47C543.515 354.47 542.092 337.138 550.593 316.063C557.987 297.73 576.347 282.52 585.586 285.749C594.825 288.979 594.601 295.503 590.093 302.369C585.586 309.236 558.224 325.579 551.937 359.32Z" fill="#5EA9BE"/>
<path opacity="0.1" d="M551.937 359.32L543.515 354.47C543.515 354.47 542.092 337.138 550.593 316.063C557.987 297.73 576.347 282.52 585.586 285.749C594.825 288.979 594.601 295.503 590.093 302.369C585.586 309.236 558.224 325.579 551.937 359.32Z" fill="black"/>
<path d="M547.469 357.475C547.658 357.475 547.839 357.4 547.972 357.266C548.106 357.133 548.181 356.952 548.181 356.763C548.01 318.132 584.294 292.01 584.663 291.759C584.792 291.64 584.873 291.477 584.891 291.303C584.909 291.128 584.863 290.952 584.762 290.809C584.66 290.666 584.51 290.564 584.339 290.523C584.168 290.482 583.988 290.504 583.833 290.586C583.464 290.85 546.586 317.394 546.757 356.763C546.757 356.952 546.832 357.133 546.966 357.266C547.099 357.4 547.28 357.475 547.469 357.475Z" fill="white"/>
<path d="M184.295 435.461C184.295 435.461 183.477 411.21 186.654 403.947C188.719 399.397 191.718 395.333 195.458 392.02C195.458 392.02 189.263 401.14 188.868 409.905C188.473 418.669 189.804 435.461 189.804 435.461C189.804 435.461 186.509 438.136 184.295 435.461Z" fill="#5EA9BE"/>
<path opacity="0.1" d="M184.295 435.461C184.295 435.461 183.477 411.21 186.654 403.947C188.719 399.397 191.718 395.333 195.458 392.02C195.458 392.02 189.263 401.14 188.868 409.905C188.473 418.669 189.804 435.461 189.804 435.461C189.804 435.461 186.509 438.136 184.295 435.461Z" fill="black"/>
<path d="M183.556 441.405C183.556 441.405 184.874 441.484 186.113 439.414C186.271 438.61 184.518 414.372 177.19 405.45C169.862 396.527 155.667 394.286 155.667 394.286C155.667 394.286 169.875 399.426 175.753 411.354C180.34 420.659 181.17 440.35 181.17 440.35L183.556 441.405Z" fill="#5EA9BE"/>
<path opacity="0.15" d="M183.556 441.405C183.556 441.405 184.874 441.484 186.113 439.414C186.271 438.61 184.518 414.372 177.19 405.45C169.862 396.527 155.667 394.286 155.667 394.286C155.667 394.286 169.875 399.426 175.753 411.354C180.34 420.659 181.17 440.35 181.17 440.35L183.556 441.405Z" fill="black"/>
<path d="M179.207 440.404C179.207 440.404 169.981 413.74 150.211 409.062C150.211 409.062 161.348 408.613 169.296 416.258C177.243 423.902 182.766 435.804 183.609 441.405C183.556 441.405 180.736 444.41 179.207 440.404Z" fill="#5EA9BE"/>
<path opacity="0.1" d="M179.207 440.404C179.207 440.404 169.981 413.74 150.211 409.062C150.211 409.062 161.348 408.613 169.296 416.258C177.243 423.902 182.766 435.804 183.609 441.405C183.556 441.405 180.736 444.41 179.207 440.404Z" fill="black"/>
<path d="M492.943 430.149C492.943 430.149 490.426 403.894 485.997 396.513C483.133 391.898 479.329 387.938 474.834 384.889C474.834 384.889 482.742 393.864 484.403 403.248C486.063 412.633 487.039 430.926 487.039 430.926C487.039 430.926 490.927 433.352 492.943 430.149Z" fill="#5EA9BE"/>
<path opacity="0.15" d="M492.943 430.149C492.943 430.149 490.426 403.894 485.997 396.513C483.133 391.898 479.329 387.938 474.834 384.889C474.834 384.889 482.742 393.864 484.403 403.248C486.063 412.633 487.039 430.926 487.039 430.926C487.039 430.926 490.927 433.352 492.943 430.149Z" fill="black"/>
<path d="M494.564 436.449C494.564 436.449 493.246 436.713 491.533 434.656C491.243 433.826 489.74 407.466 496.396 396.817C503.052 386.167 518.038 381.778 518.038 381.778C518.038 381.778 503.434 389.304 498.769 402.972C495.131 413.648 496.989 435.039 496.989 435.039L494.564 436.449Z" fill="#5EA9BE"/>
<path opacity="0.2" d="M494.564 436.449C494.564 436.449 493.246 436.713 491.533 434.656C491.243 433.826 489.74 407.466 496.396 396.817C503.052 386.167 518.038 381.778 518.038 381.778C518.038 381.778 503.434 389.304 498.769 402.972C495.131 413.648 496.989 435.039 496.989 435.039L494.564 436.449Z" fill="black"/>
<path d="M499.111 434.762C499.111 434.762 505.293 404.738 526.038 396.922C526.038 396.922 513.978 397.989 506.479 407.347C498.979 416.705 494.696 430.294 494.617 436.449C494.564 436.449 498.03 439.296 499.111 434.762Z" fill="#5EA9BE"/>
<path opacity="0.15" d="M499.111 434.762C499.111 434.762 505.293 404.738 526.038 396.922C526.038 396.922 513.978 397.989 506.479 407.347C498.979 416.705 494.696 430.294 494.617 436.449C494.564 436.449 498.03 439.296 499.111 434.762Z" fill="black"/>
<path d="M320.035 260.101C309.216 260.104 298.639 256.898 289.642 250.888C280.646 244.879 273.633 236.337 269.491 226.342C265.35 216.347 264.265 205.348 266.376 194.736C268.486 184.125 273.695 174.378 281.346 166.727C288.996 159.077 298.743 153.867 309.355 151.757C319.966 149.647 330.965 150.732 340.96 154.873C350.955 159.015 359.497 166.027 365.507 175.024C371.516 184.021 374.722 194.598 374.719 205.417C374.702 219.915 368.935 233.814 358.683 244.065C348.432 254.317 334.533 260.084 320.035 260.101ZM320.035 151.841C309.439 151.841 299.08 154.983 290.27 160.87C281.459 166.757 274.592 175.124 270.537 184.914C266.482 194.704 265.421 205.477 267.488 215.87C269.555 226.262 274.658 235.809 282.151 243.302C289.644 250.795 299.19 255.897 309.583 257.964C319.976 260.032 330.748 258.971 340.538 254.916C350.328 250.861 358.696 243.994 364.583 235.183C370.47 226.372 373.612 216.014 373.612 205.417C373.598 191.212 367.949 177.593 357.904 167.548C347.86 157.504 334.241 151.854 320.035 151.841Z" fill="#5EA9BE"/>
<g opacity="0.15">
<path d="M320.036 288.227C303.654 288.23 287.639 283.374 274.017 274.275C260.394 265.175 249.777 252.24 243.506 237.105C237.236 221.971 235.595 205.317 238.79 189.249C241.985 173.182 249.874 158.423 261.458 146.839C273.041 135.256 287.8 127.367 303.868 124.172C319.935 120.977 336.589 122.618 351.724 128.888C366.858 135.158 379.793 145.776 388.893 159.398C397.992 173.021 402.848 189.035 402.845 205.417C402.818 227.371 394.084 248.418 378.56 263.942C363.036 279.466 341.99 288.199 320.036 288.227ZM320.036 123.701C303.874 123.701 288.075 128.494 274.637 137.473C261.198 146.452 250.725 159.214 244.54 174.146C238.355 189.078 236.737 205.508 239.89 221.359C243.043 237.211 250.825 251.771 262.254 263.199C273.682 274.628 288.242 282.41 304.094 285.563C319.945 288.716 336.375 287.098 351.307 280.913C366.239 274.728 379.001 264.255 387.98 250.816C396.959 237.378 401.752 221.579 401.752 205.417C401.731 183.751 393.115 162.979 377.794 147.659C362.474 132.338 341.702 123.722 320.036 123.701Z" fill="#5EA9BE"/>
</g>
<g opacity="0.3">
<path d="M320.035 278.171C305.643 278.171 291.574 273.903 279.607 265.907C267.64 257.911 258.314 246.545 252.806 233.248C247.299 219.951 245.859 205.319 248.668 191.204C251.477 177.088 258.408 164.122 268.586 153.946C278.764 143.77 291.731 136.841 305.847 134.034C319.964 131.228 334.595 132.671 347.891 138.181C361.187 143.69 372.551 153.019 380.545 164.987C388.539 176.955 392.805 191.025 392.802 205.418C392.778 224.708 385.103 243.201 371.461 256.84C357.82 270.479 339.326 278.15 320.035 278.171ZM320.035 133.758C305.862 133.758 292.008 137.961 280.223 145.835C268.439 153.709 259.254 164.901 253.83 177.995C248.407 191.089 246.988 205.497 249.753 219.398C252.518 233.298 259.343 246.067 269.364 256.089C279.386 266.111 292.155 272.935 306.055 275.7C319.956 278.465 334.364 277.046 347.458 271.623C360.552 266.199 371.744 257.014 379.618 245.23C387.492 233.445 391.695 219.591 391.695 205.418C391.664 186.426 384.102 168.221 370.669 154.795C357.236 141.37 339.027 133.818 320.035 133.798V133.758Z" fill="#5EA9BE"/>
</g>
<g opacity="0.6">
<path d="M320.035 269.354C307.389 269.343 295.03 265.584 284.52 258.55C274.01 251.516 265.822 241.524 260.99 229.837C256.158 218.15 254.9 205.293 257.375 192.891C259.849 180.49 265.945 169.1 274.892 160.162C283.839 151.224 295.235 145.14 307.64 142.678C320.044 140.217 332.9 141.488 344.582 146.332C356.264 151.176 366.247 159.374 373.27 169.891C380.293 180.408 384.04 192.771 384.037 205.418C384.016 222.38 377.265 238.64 365.265 250.627C353.264 262.615 336.997 269.35 320.035 269.354ZM320.035 142.575C307.606 142.573 295.455 146.256 285.118 153.16C274.782 160.063 266.726 169.877 261.967 181.36C257.209 192.843 255.963 205.478 258.386 217.669C260.809 229.861 266.793 241.059 275.581 249.849C284.369 258.639 295.567 264.626 307.757 267.051C319.948 269.477 332.584 268.234 344.068 263.478C355.551 258.722 365.367 250.667 372.273 240.332C379.178 229.998 382.864 217.847 382.864 205.418C382.847 188.758 376.222 172.786 364.444 161.005C352.665 149.224 336.694 142.596 320.035 142.575Z" fill="#5EA9BE"/>
</g>
<path d="M364.135 202.781C362.238 176.553 344.497 161.146 320.035 161.146C310.892 161.147 301.972 163.976 294.5 169.245C287.027 174.514 281.366 181.965 278.294 190.576V190.695C278.149 191.09 278.017 191.499 277.886 191.908C275.881 197.531 272.436 202.53 267.895 206.406C261.2 211.809 252.844 210.136 244.764 209.213C242.288 208.878 239.789 208.737 237.291 208.791C226.576 209.2 215.966 216.251 218.22 228.284C218.852 231.672 220.684 234.993 219.986 238.354C219.287 241.715 216.585 243.85 213.725 245.353C210.865 246.855 207.702 247.87 205.092 249.794C203.351 251.105 201.907 252.769 200.853 254.677C199.799 256.585 199.16 258.694 198.977 260.865C198.463 266.836 201.679 273.426 205.844 277.538C214.312 285.671 225.022 291.083 236.593 293.077C249.351 295.489 262.755 294.87 275.685 293.657C280.596 293.198 285.476 292.454 290.301 291.43C312.259 286.738 338.685 273.255 348.807 259.969C356.705 250.024 361.826 238.164 363.648 225.596C364.703 218.036 364.866 210.379 364.135 202.781Z" fill="#263238"/>
<path d="M272.377 372.804C265.246 387.209 247.651 430.532 240.666 460.503C234.142 488.564 240.428 501.955 245.938 506.317C254.61 513.131 275.724 517.454 292.199 482.382C297.353 471.416 316.754 437.57 316.754 437.57C316.754 437.57 331.12 432.39 336.063 428.516C336.063 428.516 383.972 429.913 407.235 425.141C430.497 420.37 444.798 394.155 434.781 389.753C418.464 382.557 391.946 376.178 353.328 373.674L272.377 372.804Z" fill="#37474F"/>
<path d="M379.925 400.969C369.447 403.394 358.52 410.076 349.69 415.757C350.215 412.671 350.116 409.512 349.4 406.465C349.063 408.84 348.323 411.14 347.212 413.266C346.158 415.81 344.128 417.128 341.69 418.38C341.69 418.38 321.63 427.342 315.751 423.362C311.059 419.607 305.282 417.463 299.276 417.246C304.285 420.62 318.809 431.019 313.656 443.079L316.806 437.544C316.806 437.544 331.172 432.364 336.114 428.489C336.114 428.489 362.896 429.266 386.133 427.672L403.108 401.536C403.108 401.536 394.502 397.582 379.925 400.969Z" fill="#263238"/>
<path d="M339.225 444.529C347.305 442.288 353.934 440.048 356.583 435.224C359.233 430.4 365.414 425.207 375.523 429.952C387.003 435.224 399.853 431.705 408.934 431.375C418.015 431.046 424.342 439.085 427.531 446.018C432.896 457.709 423.235 451.975 414.76 450.46C406.285 448.944 386.344 451.33 378.396 452.911C365.388 455.547 342.889 470.797 318.941 488.339C318.941 488.339 305.999 459.659 304.364 454.585C304.377 454.532 331.172 446.783 339.225 444.529Z" fill="#B16668"/>
<path d="M424.407 440.483C420.862 435.409 415.656 431.072 408.947 431.323C399.866 431.652 387.016 435.277 375.536 429.899C365.427 425.207 359.232 430.4 356.596 435.171C353.96 439.943 347.37 442.236 339.238 444.477C331.106 446.717 304.377 454.48 304.377 454.48C304.891 456.062 305.418 457.393 307.54 462.322C320.483 457.551 351.337 447.613 376.392 443.027C404.44 437.939 417.303 433.577 424.407 440.483Z" fill="#9A4A4D"/>
<path d="M245.99 506.317C249.944 511.76 265.905 516.663 281.338 511.76C298.472 506.317 316.252 491.503 324.529 484.227C324.529 484.227 323.818 472.602 308.713 455.956C299.727 459.381 290.928 463.279 282.353 467.634C271.216 488.353 255.624 482.962 251.38 490.303C244.329 502.547 245.99 506.317 245.99 506.317Z" fill="#37474F"/>
<path d="M286.506 475.911C289.043 472.887 291.983 470.226 295.244 468.003C300.606 464.7 306.362 462.088 312.378 460.226C311.262 458.829 310.045 457.397 308.727 455.93C302.576 458.276 296.483 460.859 290.446 463.68C287.389 465.103 284.463 465.933 281.866 468.161C279.525 470.167 277.542 472.555 276.001 475.225C275.262 476.32 274.863 477.608 274.854 478.929C274.974 479.91 275.351 480.843 275.948 481.631C276.296 482.264 276.819 482.784 277.455 483.128C278.091 483.471 278.813 483.624 279.533 483.568C280.492 483.21 281.304 482.542 281.84 481.67C283.342 479.759 284.898 477.795 286.506 475.911Z" fill="#263238"/>
<path d="M361.776 411.987C340.188 425.325 325.255 430.439 317.426 428.449C312.154 427.131 303.073 422.834 297.656 432.561C294.499 437.978 290.253 442.681 285.188 446.374C281.484 449.194 277.029 451.646 274.182 455.455C271.335 459.264 270.808 463.495 270.861 467.963C270.861 470.77 271.098 473.736 272.68 476.055C273.125 476.767 273.735 477.362 274.457 477.791C275.179 478.22 275.993 478.469 276.831 478.52C280.285 478.52 282.024 473.722 283.87 471.469C286.211 468.712 288.995 466.365 292.107 464.523C298.407 460.687 305.498 458.473 312.378 455.956C319.64 453.32 347.16 445.412 369.619 440.285L361.776 411.987Z" fill="#B16668"/>
<path d="M424.579 386.643C454.142 392.521 450.412 412.264 439.077 421.398C428.705 429.702 413.6 432.351 396.427 435.356C379.253 438.361 368.749 440.496 368.749 440.496C368.749 440.496 361.078 427.448 361.869 411.988C371.754 405.055 385.171 398.702 403.425 401.378L424.579 386.643Z" fill="#37474F"/>
<path d="M341.479 260.325C356.531 261.999 362.212 266.217 366.996 281.73C372.268 298.626 387.86 352.177 387.86 352.177C393.132 355.182 436.903 379.024 440.699 376.652C442.293 375.65 444.284 370.695 445.008 368.955C446.067 366.382 446.947 363.74 447.644 361.047C448.277 358.635 448.804 356.091 450.702 354.299C451.139 353.871 451.657 353.535 452.224 353.309C452.792 353.082 453.399 352.971 454.01 352.981C456.739 353.112 458.03 355.775 458.729 358.174C459.601 361.572 460.153 365.045 460.376 368.546C460.943 374.214 461.418 383.136 460.152 386.076C459.085 388.567 452.244 396.554 446.511 398.188C440.778 399.822 404.335 385.417 381.454 378.616C369.013 374.912 367.088 372.026 364.32 365.726C360.696 357.383 342.666 311.951 342.666 311.951L341.479 260.325Z" fill="#B16668"/>
<path d="M351.337 355.116L356.609 373.911C352.906 386.366 343.337 395.355 316.358 397.292C295.784 398.768 275.5 393.522 269.107 379.908C272.297 367.176 277.239 355.116 281.826 343.004C281.826 343.004 272.099 316.644 272.099 316.485C274.735 314.574 279.375 302.95 281.325 288.807C282.261 282.138 281.694 271.001 278.32 264.2L302.044 260.022L330.078 259.205C336.787 259.574 341.558 260.22 341.558 260.22C345.38 265.202 350.454 275.021 357.031 286.58C360.88 293.328 368.709 309.948 352.379 325.566C352.55 327.781 351.087 351.544 351.337 355.116Z" fill="#5EA9BE"/>
<g opacity="0.8">
<path d="M351.337 355.116L356.609 373.911C352.906 386.366 343.337 395.355 316.358 397.292C295.784 398.768 275.5 393.522 269.107 379.908C272.297 367.176 277.239 355.116 281.826 343.004C281.826 343.004 272.099 316.644 272.099 316.485C274.735 314.574 279.375 302.95 281.325 288.807C282.261 282.138 281.694 271.001 278.32 264.2L302.044 260.022L330.078 259.205C336.787 259.574 341.558 260.22 341.558 260.22C345.38 265.202 350.454 275.021 357.031 286.58C360.88 293.328 368.709 309.948 352.379 325.566C352.55 327.781 351.087 351.544 351.337 355.116Z" fill="white"/>
</g>
<g opacity="0.05">
<path d="M341.453 391.624C335.456 394.537 327.337 396.501 316.305 397.305C295.745 398.781 275.447 393.522 269.068 379.907C272.245 367.175 277.187 355.129 281.774 343.003C281.774 343.003 272.047 316.643 272.047 316.485C272.235 316.345 272.407 316.186 272.561 316.01L272.798 315.747C273.191 315.253 273.543 314.728 273.853 314.178C273.932 314.046 274.011 313.888 274.103 313.743C274.34 313.295 274.604 312.794 274.868 312.254C275.131 311.714 275.223 311.49 275.395 311.094C275.922 309.895 276.462 308.524 276.99 307.022C277.161 306.508 277.345 305.994 277.517 305.466V305.321C277.622 304.992 277.741 304.649 277.833 304.306C278.044 303.621 278.255 302.988 278.466 302.198C278.887 300.708 279.296 299.1 279.665 297.453C279.744 297.123 279.823 296.807 279.889 296.478L281.695 302.712C281.695 302.712 279.916 315.892 281.695 321.915C283.474 327.938 294.875 344.057 295.771 347.247C296.667 350.436 289.379 350.397 285.135 359.03C280.891 367.663 281.945 381.713 295.85 389.344C314.183 399.4 340.412 391.927 341.453 391.624Z" fill="black"/>
</g>
<path opacity="0.05" d="M297.985 314.917C297.985 314.917 299.777 322.1 310.137 326.568C314.288 328.488 318.931 329.078 323.431 328.257C327.93 327.436 332.066 325.244 335.271 321.981C335.271 321.981 327.455 337.639 308.713 330.548C296.311 325.83 297.985 314.917 297.985 314.917Z" fill="black"/>
<path d="M276.792 315.088C280.739 306.751 283.563 297.927 285.188 288.847C287.969 272.939 283.079 263.396 283.079 263.396C265.866 265.097 259.223 270.158 248.099 303.912C240.336 327.451 229.726 356.171 226.141 376.204C224.415 385.891 233.43 430.651 238.438 447.086C239.756 451.449 245.674 459.37 253.463 462.375C258.735 463.469 270.466 453.228 272.179 449.722C274.275 443.211 278.321 424.403 276.014 419.316C273.879 414.624 269.596 414.255 265.391 418.38C261.602 422.037 258.605 426.433 256.587 431.297C254.821 414.163 253.463 379.222 253.463 379.222L276.792 315.088Z" fill="#B16668"/>
<path d="M347.304 184.422C351.983 187.19 357.466 194.847 356.899 219.507C356.412 240.424 349.637 245.59 346.237 247.08C342.836 248.569 336.273 247.66 329.894 246.592V259.152C329.894 259.152 338.711 269.393 338.157 275.14C337.604 280.886 325.426 282.257 317.162 276.642C308.898 271.028 301.965 260.062 301.965 260.062L302.11 231.198C302.11 231.198 298.354 234.849 291.988 229.287C286.716 224.687 284.963 216.937 289.049 212.785C293.135 208.634 300.726 209.754 303.626 215.685L309.596 214.037C309.573 211.362 310.311 208.735 311.726 206.464C313.14 204.193 315.172 202.372 317.583 201.213C318.758 200.685 319.969 200.245 321.208 199.895C335.1 195.743 342.059 195.467 347.304 184.422Z" fill="#B16668"/>
<path d="M309.597 211.138L303.64 212.785V222.591C305.223 222.591 306.742 221.962 307.861 220.842C308.981 219.723 309.61 218.204 309.61 216.621L309.597 211.138Z" fill="#263238"/>
<path d="M329.894 246.591C323.172 245.708 309.333 241.741 307.172 236.271C308.039 239.04 309.731 241.477 312.022 243.257C316.161 246.789 329.894 250.783 329.894 250.783V246.591Z" fill="#9A4A4D"/>
<path d="M331.673 211.639C331.536 212.649 331.063 213.584 330.331 214.293C329.599 215.003 328.649 215.445 327.635 215.55C326.621 215.655 325.601 215.416 324.739 214.872C323.877 214.327 323.223 213.509 322.882 212.548C324.199 213.513 325.828 213.954 327.452 213.786C329.077 213.618 330.581 212.852 331.673 211.639Z" fill="#263238"/>
<path d="M354.962 211.23C354.679 212.216 354.071 213.077 353.237 213.674C352.403 214.271 351.392 214.568 350.368 214.518C349.343 214.468 348.366 214.072 347.594 213.397C346.823 212.721 346.303 211.804 346.118 210.795C347.275 211.94 348.815 212.616 350.441 212.693C352.076 212.771 353.683 212.251 354.962 211.23Z" fill="#263238"/>
<path d="M326.401 203.098L320.43 206.393C320.006 205.574 319.914 204.624 320.175 203.739C320.435 202.855 321.027 202.106 321.827 201.648C322.221 201.433 322.654 201.3 323.1 201.257C323.546 201.213 323.996 201.261 324.424 201.396C324.851 201.532 325.247 201.753 325.586 202.045C325.926 202.337 326.203 202.695 326.401 203.098Z" fill="#263238"/>
<path d="M331.647 231.197L338.013 233.596C337.875 234.024 337.653 234.419 337.359 234.759C337.064 235.098 336.705 235.374 336.301 235.571C335.897 235.768 335.458 235.882 335.009 235.905C334.56 235.928 334.112 235.86 333.69 235.705C332.831 235.365 332.138 234.705 331.757 233.864C331.376 233.023 331.336 232.067 331.647 231.197Z" fill="#9A4A4D"/>
<path d="M355.292 203.81L348.808 201.516C348.939 201.088 349.155 200.69 349.444 200.347C349.732 200.004 350.088 199.723 350.488 199.521C350.888 199.319 351.325 199.2 351.773 199.172C352.22 199.143 352.668 199.206 353.091 199.355C353.956 199.677 354.666 200.318 355.075 201.146C355.484 201.974 355.562 202.927 355.292 203.81Z" fill="#263238"/>
<path d="M338.013 208.476L338.935 225.267L347.7 222.275L338.013 208.476Z" fill="#9A4A4D"/>
</svg>
