<svg width="37" height="37" viewBox="0 0 37 37" fill="none" xmlns="http://www.w3.org/2000/svg">
<path d="M10.1983 0C10.9679 0.234748 11.7218 0.548004 12.4758 0.923445C12.6002 0.616408 12.7324 0.307815 12.8723 0H10.1983ZM16.1836 0C16.992 1.15431 18.0103 2.25964 19.3628 2.45553C20.9641 2.68639 22.4565 1.5484 23.6691 0.510693C23.8712 0.338908 24.0578 0.168676 24.2366 0H22.0523C21.1118 0.676261 20.109 1.14887 19.5649 1.07113C19.1529 1.01128 18.5855 0.589202 18.0258 0H16.1836ZM27.68 0C27.8821 0.359895 28.1153 0.752437 28.3718 1.15353C29.258 2.52082 30.3929 4.06378 32.0252 4.29775C33.6265 4.52939 35.1189 3.39063 36.3237 2.35292C36.5647 2.14849 36.7901 1.9425 37 1.74351V0H36.7668C36.4248 0.363782 35.9506 0.831723 35.4143 1.29111C34.3027 2.24254 32.9036 3.0113 32.2195 2.91336C31.5122 2.81076 30.3618 1.6479 29.5456 0.391765C29.4601 0.260399 29.3824 0.129811 29.2969 0H27.68ZM7.1124 0.91645C4.8924 0.933551 2.60943 1.91141 0 4.51695V11.2477C1.14342 14.1315 3.55542 16.2691 5.27405 17.5517C5.64095 15.7095 6.06924 12.6779 4.11819 9.95735L3.24294 8.73697L4.74004 8.85357C8.47269 9.1334 10.6025 9.93403 13.4397 11.9317C13.0744 10.8279 12.5924 9.77857 11.8074 8.91576C10.5637 7.54769 8.55819 6.51387 4.83332 6.33275L3.77307 6.28223L4.2379 5.32769C4.75947 4.25811 6.02882 3.59118 7.93634 3.18853C9.28887 2.90403 11.0145 2.78044 13.0977 2.85895C11.0922 1.69454 9.20336 0.959979 7.35336 0.918004H7.1124V0.91645ZM11.2788 4.23557C10.3849 4.25889 9.59202 4.32884 8.90021 4.43534C8.81471 4.79679 8.73698 5.15824 8.65147 5.51891C9.42101 5.73733 10.0973 6.01017 10.6958 6.32809C10.8668 5.6324 11.0611 4.93515 11.2788 4.23557ZM21.1273 4.35838C20.9718 4.35838 20.8086 4.36926 20.6532 4.38326C18.9975 4.53561 17.2563 5.41941 15.1498 6.63824C17.1863 6.6771 18.7021 6.88697 19.837 7.19013C21.4149 7.60987 22.3166 8.24727 22.8996 8.75252L24.2132 9.89517L22.4721 9.98067C20.6143 10.0662 19.3317 10.4004 18.4689 10.8513C17.5983 11.3021 17.1242 11.854 16.8132 12.5303C16.4324 13.3542 16.3468 14.4191 16.3158 15.554C17.2097 14.4658 18.0336 13.7817 18.9975 13.4086C20.4122 12.8567 21.9202 13.0355 24.1044 13.292L25.1771 13.4164L24.6252 14.3414C23.1872 16.7588 23.3038 19.0597 23.6147 20.692C25.8223 19.4483 29.1103 18.0803 29.5067 14.8855L29.6311 13.875L30.525 14.3492C32.4061 15.3597 34.6681 16.0748 37 16.4246V12.9966C36.1061 12.0328 35.0878 11.3487 33.4244 11.0223L32.1962 10.7813L33.0435 9.86408C34.2017 8.60483 35.2122 8.0374 36.487 7.85861C36.6502 7.83529 36.8212 7.81975 37 7.8042V6.58382C36.5725 6.50609 36.1372 6.44391 35.6941 6.42059C33.2223 6.26668 30.7426 6.95693 29.5611 8.58929L29.0637 9.27332L28.4884 8.65924C25.5658 5.58731 23.4592 4.46176 21.4926 4.3646C21.4227 4.3646 21.3527 4.35683 21.2828 4.35683H21.1273V4.35838ZM7.67983 10.6725C6.8792 15.7483 6.55273 20.7231 6.52941 25.4803C7.30672 25.5347 8.06849 25.6513 8.79916 25.8378C9.11008 21.0496 9.10231 16.238 9.75525 11.3487C9.09454 11.0611 8.42605 10.8435 7.67983 10.6725ZM30.696 15.9893C30.5716 16.4479 30.3929 16.8676 30.183 17.2641C34.2405 23.5137 35.4298 30.2063 35.4143 37H37V25.0061C36.0672 22.3011 34.9479 19.6349 33.4011 17.0387C32.4605 16.7433 31.5511 16.3935 30.696 15.9893ZM1.72174 19.1063C1.18773 19.1063 0.599307 19.1607 0 19.2618V20.6376C0.725231 20.5132 1.40616 20.4355 1.89664 20.4588C2.71048 20.4977 4.07389 20.8863 5.22353 21.3061C5.24374 20.8397 5.26706 20.3733 5.29426 19.8992C4.19359 19.5183 2.97555 19.1607 1.96193 19.1141C1.88342 19.1141 1.80336 19.1063 1.72174 19.1063ZM16.6578 19.6737C15.2197 20.8164 14.2559 21.205 13.1443 21.3372C12.3903 21.4305 11.5353 21.3761 10.4626 21.2983C10.4393 21.7647 10.4237 22.2311 10.4004 22.6975C11.4731 22.7752 12.3903 22.8296 13.3076 22.7286C14.6679 22.5653 15.966 22.0134 17.5284 20.7697L16.6578 19.6737ZM31.0225 23.2183C30.424 23.2105 29.8176 23.2416 29.2269 23.296C27.6412 23.4437 26.1099 23.7857 24.905 24.2443C24.4464 24.4153 24.05 24.6174 23.7002 24.8273C27.75 25.0605 30.1208 25.4492 32.5071 26.1021L32.717 26.1643C32.445 25.1771 32.1185 24.2055 31.7376 23.2338C31.4966 23.2261 31.2634 23.2183 31.0225 23.2183ZM16.6578 26.2032C15.1809 26.1876 13.7895 26.7939 12.0172 28.4962L11.5508 28.9471L11.0689 28.5195C9.48319 27.1126 6.54496 26.6384 3.79561 26.9494C2.4221 27.1048 1.10456 27.4468 0.0559663 27.9132C0.0365336 27.921 0.0194328 27.9288 0 27.9366V28.4962C1.13021 28.5273 2.08397 28.5506 2.84263 28.6206C4.14851 28.745 5.18622 29.0559 6.41282 29.7866L7.82752 30.6183L6.24414 31.0613C3.00508 31.9553 1.05947 34.1784 0.932773 37H1.26935C2.42599 36.3393 3.3883 35.6708 4.38714 35.1267C5.735 34.3882 7.22122 33.9218 9.18782 34.2405L9.70084 34.3261L9.76303 34.8468C9.86408 35.6397 10.1361 36.3548 10.517 37H15.9815C15.8416 36.4403 15.6162 35.8651 15.2586 35.2666L14.5979 34.1706C16.3702 34.1784 18.259 34.4193 19.6271 34.9013C20.7387 35.2977 22.1922 35.9662 24.1122 36.8679C23.9334 35.5697 23.537 34.466 22.6664 33.6032C21.5393 32.4761 19.5027 31.6366 15.7483 31.4578L14.4424 31.3956C15.6939 29.4679 17.3263 28.9704 19.1063 28.7527C20.28 28.6206 21.7492 28.574 23.4903 28.5817C21.5004 27.649 19.8214 26.825 18.3679 26.4519C17.8237 26.312 17.3029 26.2187 16.7977 26.2032H16.6578ZM32.9968 27.2214L32.6393 27.4002C31.1313 28.1697 30.0742 29.017 29.4368 30.0508C28.9548 30.8359 28.6983 31.7609 28.7061 32.9269C29.8487 32.1418 30.5716 31.5122 31.3878 31.0613C32.033 30.7038 32.7248 30.5017 33.6187 30.4784C33.4632 29.3824 33.2611 28.2941 32.9968 27.2214Z" fill="#5EA9BE"/>
</svg>
