<svg width="35" height="31" viewBox="0 0 35 31" fill="none" xmlns="http://www.w3.org/2000/svg">
<path d="M29.4587 0.125H5.54199C2.71641 0.125 0.416992 2.42442 0.416992 5.25V25.75C0.416992 28.5756 2.71641 30.875 5.54199 30.875H29.4587C32.2842 30.875 34.5837 28.5756 34.5837 25.75V5.25C34.5837 2.42442 32.2842 0.125 29.4587 0.125ZM29.4587 27.4583H5.54199C5.08891 27.4583 4.65439 27.2784 4.33402 26.958C4.01364 26.6376 3.83366 26.2031 3.83366 25.75V15.5H7.25033V22.3333H10.667V15.5H12.3753V22.3333H15.792V15.5H17.5003V22.3333H20.917V15.5H24.3337V22.3333H27.7503V15.5H31.167V25.75C31.167 26.2031 30.987 26.6376 30.6666 26.958C30.3463 27.2784 29.9117 27.4583 29.4587 27.4583Z" fill="#FFFFFF"/>
</svg>
