<svg width="27" height="37" viewBox="0 0 27 37" fill="none" xmlns="http://www.w3.org/2000/svg">
<path d="M14.3016 1.28375C14.2025 1.16811 14.0797 1.07529 13.9414 1.01164C13.8031 0.947994 13.6527 0.915039 13.5004 0.915039C13.3482 0.915039 13.1978 0.947994 13.0595 1.01164C12.9212 1.07529 12.7983 1.16811 12.6993 1.28375C9.9167 4.53834 0.84375 15.7901 0.84375 24.1248C0.84375 31.8917 5.73398 36.781 13.5 36.781C21.266 36.781 26.1562 31.8917 26.1562 24.1248C26.1562 15.7901 17.0833 4.53834 14.3016 1.28375ZM14.9062 32.2107C14.7373 32.2111 14.5708 32.1709 14.4206 32.0935C14.2705 32.016 14.1411 31.9037 14.0435 31.7659C13.9458 31.6281 13.8826 31.4688 13.8593 31.3015C13.836 31.1342 13.8533 30.9637 13.9096 30.8044C13.9815 30.5966 14.1171 30.4168 14.2972 30.2906C14.4772 30.1643 14.6925 30.0981 14.9124 30.1013C16.3084 30.0983 17.6464 29.5424 18.6336 28.5552C19.6208 27.5681 20.1767 26.2301 20.1797 24.834C20.1765 24.6142 20.2427 24.3989 20.3689 24.2188C20.4952 24.0388 20.675 23.9031 20.8828 23.8312C21.0421 23.7749 21.2125 23.7577 21.3798 23.781C21.5472 23.8043 21.7064 23.8674 21.8442 23.9651C21.9821 24.0628 22.0944 24.1921 22.1718 24.3423C22.2492 24.4924 22.2894 24.659 22.2891 24.8279C22.287 26.7853 21.5085 28.6619 20.1244 30.046C18.7403 31.4301 16.8637 32.2086 14.9062 32.2107Z" fill="#5EA9BE"/>
</svg>
