<svg width="38" height="38" viewBox="0 0 38 38" fill="none" xmlns="http://www.w3.org/2000/svg">
<path d="M2.50033 6.16699C2.50033 5.06699 3.23366 4.33366 4.33366 4.33366H6.16699C7.26699 4.33366 8.00033 5.06699 8.00033 6.16699C8.00033 7.26699 7.26699 8.00033 6.16699 8.00033H4.33366C3.23366 8.00033 2.50033 7.26699 2.50033 6.16699ZM4.33366 20.8337C4.33366 19.7337 5.06699 19.0003 6.16699 19.0003H8.00033C9.10033 19.0003 9.83366 19.7337 9.83366 20.8337C9.83366 21.9337 9.10033 22.667 8.00033 22.667H6.16699C5.06699 22.667 4.33366 21.9337 4.33366 20.8337ZM4.33366 26.3337C3.23366 26.3337 2.50033 27.067 2.50033 28.167C2.50033 29.267 3.23366 30.0003 4.33366 30.0003H13.5003C14.6003 30.0003 15.3337 29.267 15.3337 28.167C15.3337 27.067 14.6003 26.3337 13.5003 26.3337H4.33366ZM30.0003 6.16699C30.0003 5.06699 30.7337 4.33366 31.8337 4.33366H35.5003C36.6003 4.33366 37.3337 5.06699 37.3337 6.16699C37.3337 7.26699 36.6003 8.00033 35.5003 8.00033H31.8337C30.7337 8.00033 30.0003 7.26699 30.0003 6.16699ZM9.83366 33.667C8.73366 33.667 8.00033 34.4003 8.00033 35.5003C8.00033 36.6003 8.73366 37.3337 9.83366 37.3337H17.167C18.267 37.3337 19.0003 36.6003 19.0003 35.5003C19.0003 34.4003 18.267 33.667 17.167 33.667H9.83366ZM2.50033 15.3337C1.40033 15.3337 0.666992 14.6003 0.666992 13.5003C0.666992 12.4003 1.40033 11.667 2.50033 11.667H19.0003C21.017 11.667 22.667 10.017 22.667 8.00033C22.667 5.98366 21.017 4.33366 19.0003 4.33366C17.9003 4.33366 16.9837 4.70033 16.4337 5.43366C15.7003 6.16699 14.6003 6.16699 13.867 5.43366C13.1337 4.70033 13.1337 3.60033 13.867 2.86699C15.1503 1.58366 16.9837 0.666992 19.0003 0.666992C23.0337 0.666992 26.3337 3.96699 26.3337 8.00033C26.3337 12.0337 23.0337 15.3337 19.0003 15.3337H2.50033ZM31.8337 19.0003C32.9337 19.0003 33.667 18.267 33.667 17.167C33.667 16.067 32.9337 15.3337 31.8337 15.3337C31.2837 15.3337 30.917 15.517 30.5503 15.8837C29.817 16.617 28.717 16.617 27.9837 15.8837C27.2503 15.1503 27.2503 14.0503 27.9837 13.317C28.9003 12.217 30.367 11.667 31.8337 11.667C34.9503 11.667 37.3337 14.0503 37.3337 17.167C37.3337 20.2837 34.9503 22.667 31.8337 22.667H15.3337C14.2337 22.667 13.5003 21.9337 13.5003 20.8337C13.5003 19.7337 14.2337 19.0003 15.3337 19.0003H31.8337ZM30.0003 30.0003H20.8337C19.7337 30.0003 19.0003 29.267 19.0003 28.167C19.0003 27.067 19.7337 26.3337 20.8337 26.3337H30.0003C33.117 26.3337 35.5003 28.717 35.5003 31.8337C35.5003 34.9503 33.117 37.3337 30.0003 37.3337C28.5337 37.3337 27.067 36.7837 26.1503 35.6837C25.417 34.9503 25.417 33.8503 26.1503 33.117C26.8837 32.3837 27.9837 32.3837 28.717 33.117C29.0837 33.4837 29.4503 33.667 30.0003 33.667C31.1003 33.667 31.8337 32.9337 31.8337 31.8337C31.8337 30.7337 31.1003 30.0003 30.0003 30.0003Z" fill="#5EA9BE"/>
</svg>
