<svg width="34" height="40" viewBox="0 0 34 40" fill="none" xmlns="http://www.w3.org/2000/svg">
<path d="M33.75 31.875V33.75H0V31.875L3.75 28.125V16.875C3.75 11.0625 7.55625 5.94375 13.125 4.29375V3.75C13.125 2.75544 13.5201 1.80161 14.2234 1.09835C14.9266 0.395088 15.8804 0 16.875 0C17.8696 0 18.8234 0.395088 19.5266 1.09835C20.2299 1.80161 20.625 2.75544 20.625 3.75V4.29375C26.1938 5.94375 30 11.0625 30 16.875V28.125L33.75 31.875ZM20.625 35.625C20.625 36.6196 20.2299 37.5734 19.5266 38.2766C18.8234 38.9799 17.8696 39.375 16.875 39.375C15.8804 39.375 14.9266 38.9799 14.2234 38.2766C13.5201 37.5734 13.125 36.6196 13.125 35.625" fill="#5EA9BE"/>
</svg>
