<svg width="40" height="40" viewBox="0 0 40 40" fill="none" xmlns="http://www.w3.org/2000/svg">
<path fill-rule="evenodd" clip-rule="evenodd" d="M24.9998 3.33301C26.5586 3.33285 28.0862 3.76992 29.409 4.59456C30.7319 5.4192 31.7969 6.59834 32.4831 7.99801L32.6398 8.33301H34.9998C35.2821 8.33299 35.5598 8.4047 35.8068 8.54141C36.0539 8.67812 36.2621 8.87534 36.4121 9.11458C36.562 9.35381 36.6487 9.62721 36.6641 9.90913C36.6794 10.1911 36.6229 10.4723 36.4998 10.7263L36.3864 10.9247L33.7998 14.803C33.6014 15.1012 33.5044 15.4554 33.5231 15.813L33.5464 16.0263L33.7814 17.3163C35.4298 26.3797 28.6014 34.7347 19.4598 34.993L19.0231 34.9997H4.99976C4.71743 34.9997 4.43971 34.928 4.19268 34.7913C3.94564 34.6546 3.73739 34.4573 3.58745 34.2181C3.43751 33.9789 3.35081 33.7055 3.33547 33.4235C3.32013 33.1416 3.37666 32.8604 3.49976 32.6063L3.6131 32.408L16.0214 13.7947C16.442 13.1646 16.6665 12.4239 16.6664 11.6663C16.6664 9.4562 17.5444 7.33659 19.1072 5.77378C20.67 4.21098 22.7896 3.33301 24.9998 3.33301ZM19.1664 18.333C18.7148 18.333 18.0614 18.4497 17.4398 18.6813C16.8148 18.9147 16.4698 19.173 16.3498 19.3113L10.7098 27.773C12.3731 27.2947 14.1514 26.768 15.8148 26.1163C17.5931 25.4213 19.1114 24.6297 20.1631 23.7063C21.1831 22.8113 21.6664 21.8863 21.6664 20.833C21.6664 20.17 21.403 19.5341 20.9342 19.0652C20.4654 18.5964 19.8295 18.333 19.1664 18.333ZM24.9998 9.99967C24.5577 9.99967 24.1338 10.1753 23.8213 10.4878C23.5087 10.8004 23.3331 11.2243 23.3331 11.6663C23.3331 12.1084 23.5087 12.5323 23.8213 12.8449C24.1338 13.1574 24.5577 13.333 24.9998 13.333C25.4418 13.333 25.8657 13.1574 26.1783 12.8449C26.4908 12.5323 26.6664 12.1084 26.6664 11.6663C26.6664 11.2243 26.4908 10.8004 26.1783 10.4878C25.8657 10.1753 25.4418 9.99967 24.9998 9.99967Z" fill="#FFFFFF"/>
</svg>
