<svg width="46" height="46" viewBox="0 0 46 46" fill="none" xmlns="http://www.w3.org/2000/svg">
<path d="M39.2064 6.79323L44.0249 7.75636C44.2836 7.80811 44.4964 7.99786 44.5711 8.25373C44.6089 8.37803 44.6122 8.51023 44.5809 8.63629C44.5495 8.76234 44.4845 8.87753 44.3929 8.96961L40.4455 12.9199C39.9732 13.3913 39.3332 13.656 38.6659 13.6559H35.3913L27.1687 21.8812C27.3256 22.4735 27.3545 23.0925 27.2534 23.6968C27.1523 24.3012 26.9236 24.877 26.5825 25.386C26.2414 25.895 25.7957 26.3255 25.2752 26.6488C24.7547 26.9721 24.1712 27.1807 23.5638 27.2608C22.9563 27.3409 22.3387 27.2906 21.7522 27.1133C21.1657 26.9361 20.6237 26.6358 20.1623 26.2326C19.7009 25.8294 19.3307 25.3326 19.0764 24.7751C18.8221 24.2176 18.6895 23.6123 18.6875 22.9996C18.6879 22.338 18.8405 21.6854 19.1333 21.0922C19.4262 20.499 19.8515 19.9811 20.3764 19.5784C20.9013 19.1758 21.5118 18.8992 22.1606 18.7701C22.8095 18.6409 23.4793 18.6627 24.1184 18.8337L32.3438 10.6055V7.33661C32.3438 6.66961 32.6082 6.02848 33.0797 5.55698L37.03 1.60673C37.1221 1.51511 37.2373 1.45014 37.3633 1.41876C37.4894 1.38737 37.6216 1.39073 37.7459 1.42848C38.0017 1.50323 38.1915 1.71598 38.2432 1.97473L39.2064 6.79323Z" fill="#5EA9BE"/>
<path d="M5.75048 23.0003C5.75344 25.4669 6.28536 27.9042 7.31036 30.1478C8.33537 32.3914 9.82962 34.3891 11.6923 36.0061C13.555 37.6231 15.7428 38.8218 18.1082 39.5213C20.4736 40.2209 22.9614 40.405 25.404 40.0613C27.8466 39.7177 30.1871 38.8541 32.2675 37.529C34.348 36.2039 36.1201 34.448 37.4642 32.3797C38.8084 30.3115 39.6934 27.9791 40.0594 25.5397C40.4255 23.1004 40.2642 20.611 39.5864 18.2393C39.4912 17.9622 39.4534 17.6686 39.4753 17.3765C39.4972 17.0843 39.5783 16.7997 39.7138 16.5399C39.8492 16.2801 40.0361 16.0506 40.263 15.8653C40.49 15.6801 40.7523 15.5429 41.0339 15.4622C41.3156 15.3816 41.6107 15.3591 41.9013 15.3961C42.1919 15.4331 42.472 15.5289 42.7244 15.6776C42.9768 15.8264 43.1963 16.0249 43.3696 16.2611C43.5428 16.4974 43.6662 16.7665 43.7321 17.0519C45.0446 21.6448 44.7953 26.5435 43.0233 30.9794C41.2513 35.4153 38.0568 39.1374 33.941 41.5619C29.8253 43.9863 25.0212 44.9759 20.2823 44.3753C15.5435 43.7748 11.1381 41.618 7.75723 38.2435C4.38009 34.8635 2.22106 30.4577 1.61912 25.7178C1.01718 20.9778 2.00641 16.1722 4.4315 12.0554C6.85659 7.93853 10.5802 4.74363 15.0177 2.97228C19.4553 1.20093 24.3554 0.953438 28.9489 2.26865C29.4958 2.42854 29.9572 2.79842 30.2323 3.29748C30.5073 3.79653 30.5737 4.38418 30.4168 4.93199C30.2599 5.4798 29.8925 5.94323 29.395 6.221C28.8974 6.49878 28.3101 6.56831 27.7615 6.4144C25.1929 5.67744 22.4882 5.5472 19.8607 6.03394C17.2332 6.52069 14.7547 7.61111 12.6206 9.21925C10.4864 10.8274 8.75498 12.9093 7.56277 15.3008C6.37056 17.6923 5.75016 20.3281 5.75048 23.0003Z" fill="#5EA9BE"/>
<path d="M14.3754 23.0002C14.3756 24.5717 14.8048 26.1133 15.6167 27.4587C16.4287 28.8041 17.5925 29.9023 18.9828 30.6349C20.373 31.3675 21.9369 31.7065 23.5057 31.6156C25.0745 31.5246 26.5887 31.0071 27.885 30.1187C29.1811 29.2282 30.209 28.0002 30.8576 26.5677C31.5062 25.1352 31.7508 23.5526 31.565 21.9911C31.5148 21.6122 31.5664 21.2267 31.7147 20.8744C31.8629 20.5221 32.1024 20.2156 32.4084 19.9866C32.7144 19.7576 33.076 19.6143 33.4558 19.5714C33.8356 19.5286 34.22 19.5878 34.5694 19.7429C34.9187 19.8959 35.2211 20.1389 35.4459 20.447C35.6706 20.7551 35.8097 21.1173 35.8488 21.4966C36.1612 24.1649 35.6352 26.8643 34.3438 29.22C33.0524 31.5758 31.0596 33.4711 28.6421 34.6429C26.2247 35.8147 23.5023 36.2049 20.853 35.7593C18.2037 35.3136 15.7589 34.0543 13.8578 32.1561C11.9567 30.2579 10.6937 27.815 10.244 25.1664C9.79439 22.5177 10.1804 19.7948 11.3486 17.3756C12.5167 14.9563 14.409 12.9607 16.7628 11.6657C19.1166 10.3708 21.8151 9.84065 24.4839 10.149C24.7697 10.1755 25.0473 10.2588 25.3004 10.394C25.5536 10.5292 25.7772 10.7135 25.9582 10.9363C26.1391 11.159 26.2738 11.4156 26.3543 11.6911C26.4349 11.9665 26.4596 12.2553 26.427 12.5404C26.3945 12.8256 26.3054 13.1014 26.1649 13.3516C26.0244 13.6018 25.8354 13.8215 25.6089 13.9978C25.3824 14.174 25.123 14.3033 24.8459 14.378C24.5688 14.4526 24.2795 14.4713 23.9951 14.4327C22.7867 14.2924 21.5622 14.4094 20.4021 14.7759C19.242 15.1424 18.1726 15.7502 17.264 16.5593C16.3555 17.3684 15.6285 18.3606 15.1306 19.4707C14.6328 20.5808 14.3754 21.7836 14.3754 23.0002Z" fill="#5EA9BE"/>
</svg>
