<svg width="659" height="659" viewBox="0 0 659 659" fill="none" xmlns="http://www.w3.org/2000/svg">
<path d="M328.881 596.968C480.534 596.968 603.473 525.986 603.473 438.426C603.473 350.866 480.534 279.884 328.881 279.884C177.228 279.884 54.2891 350.866 54.2891 438.426C54.2891 525.986 177.228 596.968 328.881 596.968Z" fill="#FFDDD3"/>
<path opacity="0.1" d="M229.332 432.218C225.088 434.735 220.514 437.635 218.946 442.314C218.085 445.226 218.214 448.341 219.315 451.171C223.757 463.929 239.665 469.517 245.069 481.893C247.929 488.483 247.388 495.891 247.705 502.981C248.021 510.072 249.629 517.928 255.283 522.303C258.078 524.257 261.268 525.571 264.628 526.152C276.792 528.762 289.474 527.351 300.767 522.132C318.626 513.815 330.871 497.011 346.766 485.386C355.838 478.744 366.056 473.829 376.908 470.888C386.529 468.452 396.402 467.151 406.326 467.013C411.598 466.868 417.766 466.407 420.494 461.926C424.317 455.639 417.858 448.205 412.138 443.645C417.279 440.917 423.473 441.747 429.272 441.958C435.072 442.169 441.754 441.22 445.088 436.422C447.883 432.35 447.197 426.643 444.601 422.452C442.004 418.26 437.826 415.308 433.609 412.764C400.303 392.652 359.26 391.004 320.392 392.586C311.074 392.968 301.65 393.522 292.714 396.303C269.083 403.776 250.42 419.803 229.332 432.218Z" fill="black"/>
<path d="M140.604 75.5159L129.045 82.1982C129.045 81.6051 129.137 81.012 129.137 80.432V76.5703C129.137 69.6903 124.959 66.5271 119.792 69.5058C117.514 70.9355 115.604 72.8815 114.217 75.1864C113.374 66.4612 107.495 62.7181 100.352 66.8303C92.6416 71.2983 86.3811 83.2526 86.3811 93.5461V99.3322C86.3374 101.649 86.7355 103.952 87.5541 106.12L77.959 111.655C75.099 113.316 72.7793 117.745 72.7793 121.567C72.7793 125.389 75.099 127.129 77.959 125.521L140.604 89.3549C143.464 87.7074 145.783 83.2657 145.783 79.4435C145.783 75.6213 143.464 73.8684 140.604 75.5159Z" fill="#EBEBEB"/>
<path d="M214.833 95.7076L206.108 100.742C206.16 100.305 206.186 99.8649 206.187 99.4244V96.4984C206.187 91.3055 203.023 88.9199 199.135 91.2264C197.415 92.3015 195.974 93.7696 194.931 95.5099C194.285 88.9199 189.857 86.0994 184.466 89.2099C178.64 92.5708 173.922 101.599 173.922 109.362V113.738C173.891 115.493 174.195 117.237 174.818 118.878L167.569 123.056C166.371 123.906 165.39 125.024 164.703 126.322C164.016 127.62 163.644 129.061 163.615 130.529C163.615 133.416 165.368 134.734 167.569 133.495L214.833 106.12C216.032 105.269 217.015 104.148 217.702 102.848C218.389 101.548 218.76 100.104 218.787 98.6336C218.787 95.7867 217.034 94.4555 214.833 95.7076Z" fill="#EBEBEB"/>
<path d="M538.004 117.993C541.854 94.275 525.748 71.9269 502.03 68.0769C478.312 64.227 455.964 80.3331 452.114 104.051C448.264 127.769 464.37 150.117 488.088 153.967C511.806 157.817 534.154 141.711 538.004 117.993Z" fill="#F0997A"/>
<path d="M123.761 351.268L133.171 345.837C133.171 345.837 138.773 322.548 136.545 301.592C133.408 272.148 114.021 261.064 106.64 263.594C99.259 266.125 97.1371 274.705 109.276 292.247C116.538 302.567 125.369 324.13 123.761 351.268Z" fill="#5EA9BE"/>
<path opacity="0.25" d="M123.761 351.268L133.171 345.837C133.171 345.837 138.773 322.548 136.545 301.592C133.408 272.148 114.021 261.064 106.64 263.594C99.259 266.125 97.1371 274.705 109.276 292.247C116.538 302.567 125.369 324.13 123.761 351.268Z" fill="black"/>
<path d="M127.662 339.801H127.569C127.485 339.785 127.405 339.753 127.333 339.706C127.262 339.659 127.2 339.598 127.152 339.526C127.104 339.455 127.071 339.375 127.055 339.291C127.038 339.207 127.038 339.12 127.055 339.036C132.209 311.859 122.719 281.334 110.963 268.629C110.89 268.569 110.832 268.494 110.791 268.409C110.75 268.325 110.727 268.232 110.725 268.138C110.722 268.044 110.74 267.951 110.777 267.864C110.814 267.778 110.869 267.7 110.938 267.636C111.007 267.573 111.089 267.525 111.179 267.496C111.268 267.466 111.363 267.457 111.456 267.467C111.55 267.477 111.64 267.508 111.721 267.556C111.802 267.604 111.871 267.669 111.925 267.746C123.892 280.662 133.566 311.728 128.334 339.261C128.305 339.416 128.222 339.557 128.098 339.656C127.975 339.755 127.82 339.807 127.662 339.801Z" fill="white"/>
<path d="M99.1008 365.475C97.6115 366.24 93.6575 362.839 92.5108 362.022C90.6414 360.587 89.1674 358.701 88.2273 356.539C87.1719 354.075 86.9094 351.344 87.4761 348.724C87.7727 347.335 88.1691 345.97 88.6622 344.638C89.1104 343.32 89.5585 342.002 89.9802 340.684C90.5019 339.431 90.7707 338.087 90.7711 336.73C90.5602 333.975 88.2141 331.932 86.0921 330.14C83.7329 328.176 81.3078 325.632 81.4923 322.337C81.804 319.787 82.9483 317.41 84.7478 315.576C86.4217 313.652 88.3855 311.991 89.9143 309.948C91.116 308.536 91.7954 306.754 91.8386 304.9C91.7463 303.762 91.4234 302.654 90.8897 301.645C89.6456 299.54 88.5787 297.336 87.7001 295.055C87.0147 292.709 87.2783 289.849 89.1631 288.28C89.9981 287.72 90.9366 287.333 91.9233 287.141C92.9101 286.948 93.9254 286.955 94.9096 287.16C96.7946 287.45 98.5911 288.157 100.168 289.229C105.269 292.406 107.945 298.758 113.348 301.276C115.501 302.078 117.702 302.742 119.938 303.266C121.066 303.535 122.125 304.037 123.049 304.738C123.973 305.439 124.74 306.325 125.303 307.338C127.135 311.53 123.088 316.354 124.314 320.756C125.382 324.71 129.033 326.304 130.904 329.85C131.682 331.416 131.936 333.19 131.629 334.911C131.325 337.828 130.49 340.664 129.164 343.28C127.649 345.955 125.972 348.534 124.143 351.004L99.1008 365.475Z" fill="#5EA9BE"/>
<path opacity="0.1" d="M99.1008 365.475C97.6115 366.24 93.6575 362.839 92.5108 362.022C90.6414 360.587 89.1674 358.701 88.2273 356.539C87.1719 354.075 86.9094 351.344 87.4761 348.724C87.7727 347.335 88.1691 345.97 88.6622 344.638C89.1104 343.32 89.5585 342.002 89.9802 340.684C90.5019 339.431 90.7707 338.087 90.7711 336.73C90.5602 333.975 88.2141 331.932 86.0921 330.14C83.7329 328.176 81.3078 325.632 81.4923 322.337C81.804 319.787 82.9483 317.41 84.7478 315.576C86.4217 313.652 88.3855 311.991 89.9143 309.948C91.116 308.536 91.7954 306.754 91.8386 304.9C91.7463 303.762 91.4234 302.654 90.8897 301.645C89.6456 299.54 88.5787 297.336 87.7001 295.055C87.0147 292.709 87.2783 289.849 89.1631 288.28C89.9981 287.72 90.9366 287.333 91.9233 287.141C92.9101 286.948 93.9254 286.955 94.9096 287.16C96.7946 287.45 98.5911 288.157 100.168 289.229C105.269 292.406 107.945 298.758 113.348 301.276C115.501 302.078 117.702 302.742 119.938 303.266C121.066 303.535 122.125 304.037 123.049 304.738C123.973 305.439 124.74 306.325 125.303 307.338C127.135 311.53 123.088 316.354 124.314 320.756C125.382 324.71 129.033 326.304 130.904 329.85C131.682 331.416 131.936 333.19 131.629 334.911C131.325 337.828 130.49 340.664 129.164 343.28C127.649 345.955 125.972 348.534 124.143 351.004L99.1008 365.475Z" fill="black"/>
<path d="M113.506 357.963C113.419 357.957 113.335 357.933 113.257 357.893C113.18 357.854 113.111 357.8 113.055 357.733C112.998 357.667 112.956 357.591 112.929 357.508C112.902 357.425 112.892 357.338 112.9 357.251C115.285 331.419 104.53 302.212 96.0687 293.46C95.9628 293.332 95.9094 293.168 95.9191 293.002C95.9288 292.836 96.0009 292.68 96.121 292.565C96.2411 292.45 96.4002 292.385 96.5665 292.382C96.7328 292.379 96.894 292.44 97.0176 292.551C105.637 301.474 116.616 331.168 114.152 357.37C114.135 357.531 114.061 357.68 113.942 357.79C113.823 357.899 113.667 357.961 113.506 357.963Z" fill="white"/>
<path d="M110.937 326.107H110.753C104.701 324.12 98.4528 322.795 92.1162 322.153C92.0301 322.146 91.9461 322.122 91.8693 322.083C91.7926 322.043 91.7245 321.989 91.6692 321.922C91.6139 321.856 91.5725 321.779 91.5474 321.696C91.5223 321.614 91.514 321.527 91.5231 321.441C91.5278 321.354 91.5504 321.269 91.5894 321.192C91.6284 321.114 91.683 321.045 91.7498 320.989C91.8166 320.934 91.8941 320.892 91.9776 320.868C92.061 320.844 92.1486 320.837 92.2348 320.848C98.6855 321.508 105.045 322.869 111.201 324.907C111.28 324.937 111.354 324.981 111.416 325.039C111.478 325.097 111.529 325.166 111.564 325.243C111.6 325.32 111.62 325.404 111.623 325.489C111.626 325.573 111.613 325.658 111.583 325.738C111.525 325.857 111.432 325.956 111.317 326.022C111.202 326.088 111.07 326.117 110.937 326.107Z" fill="white"/>
<path d="M544.019 355.076L532.223 348.262C532.223 348.262 529.337 322.996 531.248 303.45C533.95 275.943 551.716 242.822 572.896 250.625C594.077 258.427 563.183 286.408 556.303 309.737C549.423 333.065 544.019 355.076 544.019 355.076Z" fill="#5EA9BE"/>
<path opacity="0.2" d="M544.019 355.076L532.223 348.262C532.223 348.262 529.337 322.996 531.248 303.45C533.95 275.943 551.716 242.822 572.896 250.625C594.077 258.427 563.183 286.408 556.303 309.737C549.423 333.065 544.019 355.076 544.019 355.076Z" fill="black"/>
<path d="M537.81 352.203C537.904 352.2 537.996 352.178 538.081 352.139C538.166 352.1 538.242 352.045 538.306 351.976C538.37 351.908 538.419 351.827 538.452 351.739C538.484 351.652 538.499 351.559 538.496 351.465C536.426 290.363 566.846 259.627 567.149 259.324C567.216 259.257 567.27 259.178 567.306 259.091C567.343 259.004 567.362 258.911 567.362 258.816C567.362 258.722 567.343 258.628 567.306 258.541C567.27 258.454 567.216 258.375 567.149 258.309C567.014 258.176 566.831 258.102 566.642 258.102C566.452 258.102 566.27 258.176 566.134 258.309C565.831 258.612 534.963 289.796 537.059 351.518C537.062 351.612 537.085 351.705 537.124 351.791C537.164 351.877 537.221 351.954 537.291 352.018C537.361 352.082 537.443 352.131 537.532 352.163C537.621 352.195 537.716 352.208 537.81 352.203Z" fill="white"/>
<path d="M551.439 359.32L543.017 354.47C543.017 354.47 541.594 337.138 550.095 316.063C557.489 297.73 575.849 282.52 585.088 285.749C594.327 288.979 594.103 295.503 589.595 302.369C585.088 309.236 557.726 325.579 551.439 359.32Z" fill="#5EA9BE"/>
<path opacity="0.1" d="M551.439 359.32L543.017 354.47C543.017 354.47 541.594 337.138 550.095 316.063C557.489 297.73 575.849 282.52 585.088 285.749C594.327 288.979 594.103 295.503 589.595 302.369C585.088 309.236 557.726 325.579 551.439 359.32Z" fill="black"/>
<path d="M546.972 357.475C547.161 357.475 547.342 357.4 547.475 357.266C547.609 357.133 547.684 356.952 547.684 356.763C547.512 318.132 583.797 292.01 584.166 291.759C584.295 291.64 584.376 291.477 584.394 291.303C584.412 291.128 584.366 290.952 584.265 290.809C584.163 290.666 584.013 290.564 583.842 290.523C583.671 290.482 583.491 290.504 583.336 290.586C582.967 290.85 546.089 317.394 546.26 356.763C546.26 356.952 546.335 357.133 546.469 357.266C546.602 357.4 546.783 357.475 546.972 357.475Z" fill="white"/>
<path d="M183.795 435.461C183.795 435.461 182.978 411.21 186.155 403.947C188.22 399.397 191.219 395.333 194.959 392.02C194.959 392.02 188.764 401.14 188.369 409.905C187.974 418.669 189.305 435.461 189.305 435.461C189.305 435.461 186.01 438.136 183.795 435.461Z" fill="#5EA9BE"/>
<path opacity="0.1" d="M183.795 435.461C183.795 435.461 182.978 411.21 186.155 403.947C188.22 399.397 191.219 395.333 194.959 392.02C194.959 392.02 188.764 401.14 188.369 409.905C187.974 418.669 189.305 435.461 189.305 435.461C189.305 435.461 186.01 438.136 183.795 435.461Z" fill="black"/>
<path d="M183.059 441.405C183.059 441.405 184.377 441.484 185.616 439.414C185.774 438.61 184.021 414.372 176.693 405.45C169.365 396.527 155.17 394.286 155.17 394.286C155.17 394.286 169.378 399.426 175.256 411.354C179.843 420.659 180.673 440.35 180.673 440.35L183.059 441.405Z" fill="#5EA9BE"/>
<path opacity="0.15" d="M183.059 441.405C183.059 441.405 184.377 441.484 185.616 439.414C185.774 438.61 184.021 414.372 176.693 405.45C169.365 396.527 155.17 394.286 155.17 394.286C155.17 394.286 169.378 399.426 175.256 411.354C179.843 420.659 180.673 440.35 180.673 440.35L183.059 441.405Z" fill="black"/>
<path d="M178.709 440.404C178.709 440.404 169.483 413.74 149.713 409.062C149.713 409.062 160.85 408.613 168.798 416.258C176.745 423.902 182.267 435.804 183.111 441.405C183.058 441.405 180.238 444.41 178.709 440.404Z" fill="#5EA9BE"/>
<path opacity="0.1" d="M178.709 440.404C178.709 440.404 169.483 413.74 149.713 409.062C149.713 409.062 160.85 408.613 168.798 416.258C176.745 423.902 182.267 435.804 183.111 441.405C183.058 441.405 180.238 444.41 178.709 440.404Z" fill="black"/>
<path d="M492.445 430.149C492.445 430.149 489.928 403.894 485.499 396.513C482.635 391.898 478.831 387.938 474.336 384.889C474.336 384.889 482.244 393.864 483.905 403.248C485.565 412.633 486.541 430.926 486.541 430.926C486.541 430.926 490.429 433.352 492.445 430.149Z" fill="#5EA9BE"/>
<path opacity="0.15" d="M492.445 430.149C492.445 430.149 489.928 403.894 485.499 396.513C482.635 391.898 478.831 387.938 474.336 384.889C474.336 384.889 482.244 393.864 483.905 403.248C485.565 412.633 486.541 430.926 486.541 430.926C486.541 430.926 490.429 433.352 492.445 430.149Z" fill="black"/>
<path d="M494.067 436.449C494.067 436.449 492.749 436.713 491.036 434.656C490.746 433.826 489.243 407.466 495.899 396.817C502.555 386.167 517.541 381.778 517.541 381.778C517.541 381.778 502.937 389.304 498.272 402.972C494.634 413.648 496.492 435.039 496.492 435.039L494.067 436.449Z" fill="#5EA9BE"/>
<path opacity="0.2" d="M494.067 436.449C494.067 436.449 492.749 436.713 491.036 434.656C490.746 433.826 489.243 407.466 495.899 396.817C502.555 386.167 517.541 381.778 517.541 381.778C517.541 381.778 502.937 389.304 498.272 402.972C494.634 413.648 496.492 435.039 496.492 435.039L494.067 436.449Z" fill="black"/>
<path d="M498.614 434.762C498.614 434.762 504.796 404.738 525.541 396.922C525.541 396.922 513.481 397.989 505.982 407.347C498.482 416.705 494.199 430.294 494.12 436.449C494.067 436.449 497.533 439.296 498.614 434.762Z" fill="#5EA9BE"/>
<path opacity="0.15" d="M498.614 434.762C498.614 434.762 504.796 404.738 525.541 396.922C525.541 396.922 513.481 397.989 505.982 407.347C498.482 416.705 494.199 430.294 494.12 436.449C494.067 436.449 497.533 439.296 498.614 434.762Z" fill="black"/>
<path d="M319.536 260.101C308.717 260.104 298.14 256.898 289.143 250.888C280.146 244.879 273.134 236.337 268.992 226.342C264.851 216.347 263.766 205.348 265.877 194.736C267.987 184.125 273.196 174.378 280.847 166.727C288.497 159.077 298.244 153.867 308.856 151.757C319.467 149.647 330.466 150.732 340.461 154.873C350.456 159.015 358.998 166.027 365.008 175.024C371.017 184.021 374.223 194.598 374.22 205.417C374.203 219.915 368.436 233.814 358.184 244.065C347.933 254.317 334.034 260.084 319.536 260.101ZM319.536 151.841C308.94 151.841 298.581 154.983 289.771 160.87C280.96 166.757 274.093 175.124 270.038 184.914C265.983 194.704 264.922 205.477 266.989 215.87C269.056 226.262 274.159 235.809 281.652 243.302C289.145 250.795 298.691 255.897 309.084 257.964C319.477 260.032 330.249 258.971 340.039 254.916C349.829 250.861 358.197 243.994 364.084 235.183C369.971 226.372 373.113 216.014 373.113 205.417C373.099 191.212 367.45 177.593 357.405 167.548C347.361 157.504 333.742 151.854 319.536 151.841Z" fill="#5EA9BE"/>
<g opacity="0.15">
<path d="M319.536 288.227C303.154 288.23 287.139 283.374 273.517 274.275C259.894 265.175 249.277 252.24 243.006 237.105C236.736 221.971 235.095 205.317 238.29 189.249C241.485 173.182 249.374 158.423 260.958 146.839C272.541 135.256 287.3 127.367 303.368 124.172C319.435 120.977 336.089 122.618 351.224 128.888C366.358 135.158 379.293 145.776 388.393 159.398C397.492 173.021 402.348 189.035 402.345 205.417C402.318 227.371 393.584 248.418 378.06 263.942C362.536 279.466 341.49 288.199 319.536 288.227ZM319.536 123.701C303.374 123.701 287.575 128.494 274.137 137.473C260.698 146.452 250.225 159.214 244.04 174.146C237.855 189.078 236.237 205.508 239.39 221.359C242.543 237.211 250.325 251.771 261.754 263.199C273.182 274.628 287.742 282.41 303.594 285.563C319.445 288.716 335.875 287.098 350.807 280.913C365.739 274.728 378.501 264.255 387.48 250.816C396.459 237.378 401.252 221.579 401.252 205.417C401.231 183.751 392.615 162.979 377.294 147.659C361.974 132.338 341.202 123.722 319.536 123.701Z" fill="#5EA9BE"/>
</g>
<g opacity="0.3">
<path d="M319.536 278.171C305.144 278.171 291.075 273.903 279.108 265.907C267.141 257.911 257.814 246.545 252.307 233.248C246.8 219.951 245.36 205.319 248.169 191.204C250.978 177.088 257.909 164.122 268.087 153.946C278.265 143.77 291.232 136.841 305.348 134.034C319.465 131.228 334.096 132.671 347.392 138.181C360.688 143.69 372.052 153.019 380.046 164.987C388.04 176.955 392.306 191.025 392.303 205.418C392.279 224.708 384.604 243.201 370.962 256.84C357.321 270.479 338.827 278.15 319.536 278.171ZM319.536 133.758C305.363 133.758 291.509 137.961 279.724 145.835C267.94 153.709 258.755 164.901 253.331 177.995C247.908 191.089 246.489 205.497 249.254 219.398C252.019 233.298 258.844 246.067 268.865 256.089C278.887 266.11 291.656 272.935 305.556 275.7C319.457 278.465 333.865 277.046 346.959 271.623C360.053 266.199 371.245 257.014 379.119 245.23C386.993 233.445 391.196 219.591 391.196 205.418C391.165 186.426 383.603 168.221 370.17 154.795C356.737 141.37 338.528 133.818 319.536 133.798V133.758Z" fill="#5EA9BE"/>
</g>
<g opacity="0.6">
<path d="M319.535 269.354C306.889 269.343 294.53 265.584 284.02 258.55C273.51 251.516 265.322 241.524 260.49 229.837C255.658 218.15 254.4 205.293 256.875 192.891C259.349 180.49 265.445 169.1 274.392 160.162C283.339 151.224 294.735 145.14 307.14 142.678C319.544 140.217 332.4 141.488 344.082 146.332C355.764 151.176 365.747 159.374 372.77 169.891C379.793 180.408 383.54 192.771 383.537 205.418C383.516 222.38 376.765 238.64 364.765 250.627C352.764 262.615 336.497 269.35 319.535 269.354ZM319.535 142.575C307.106 142.573 294.955 146.256 284.618 153.16C274.282 160.063 266.226 169.877 261.467 181.36C256.709 192.843 255.463 205.478 257.886 217.669C260.309 229.861 266.293 241.059 275.081 249.849C283.869 258.639 295.067 264.626 307.257 267.051C319.448 269.477 332.084 268.234 343.568 263.478C355.051 258.722 364.867 250.667 371.773 240.332C378.678 229.998 382.364 217.847 382.364 205.418C382.347 188.758 375.722 172.786 363.944 161.005C352.165 149.224 336.194 142.596 319.535 142.575Z" fill="#5EA9BE"/>
</g>
<path d="M363.636 202.781C361.739 176.553 343.998 161.146 319.536 161.146C310.393 161.147 301.473 163.976 294.001 169.245C286.528 174.514 280.867 181.965 277.795 190.576V190.695C277.65 191.09 277.518 191.499 277.387 191.908C275.382 197.531 271.937 202.53 267.396 206.406C260.701 211.809 252.345 210.136 244.265 209.213C241.789 208.878 239.29 208.737 236.792 208.791C226.077 209.2 215.467 216.251 217.721 228.284C218.353 231.672 220.185 234.993 219.487 238.354C218.788 241.715 216.086 243.85 213.226 245.353C210.366 246.855 207.203 247.87 204.593 249.794C202.852 251.105 201.408 252.769 200.354 254.677C199.3 256.585 198.661 258.694 198.478 260.865C197.964 266.836 201.18 273.426 205.345 277.538C213.813 285.671 224.523 291.083 236.094 293.077C248.852 295.489 262.256 294.87 275.185 293.657C280.097 293.198 284.977 292.454 289.802 291.43C311.76 286.738 338.186 273.255 348.308 259.969C356.206 250.024 361.327 238.164 363.149 225.596C364.204 218.036 364.367 210.379 363.636 202.781Z" fill="#263238"/>
<path d="M271.878 372.804C264.747 387.209 247.152 430.532 240.167 460.503C233.643 488.564 239.929 501.955 245.439 506.317C254.111 513.131 275.225 517.454 291.7 482.382C296.854 471.416 316.255 437.57 316.255 437.57C316.255 437.57 330.621 432.39 335.563 428.516C335.563 428.516 383.473 429.913 406.735 425.141C429.998 420.37 444.298 394.155 434.282 389.753C417.965 382.557 391.447 376.178 352.829 373.674L271.878 372.804Z" fill="#37474F"/>
<path d="M379.426 400.969C368.948 403.394 358.021 410.076 349.191 415.757C349.716 412.671 349.617 409.512 348.901 406.465C348.564 408.84 347.824 411.14 346.713 413.266C345.659 415.81 343.629 417.128 341.191 418.38C341.191 418.38 321.131 427.342 315.252 423.362C310.56 419.607 304.783 417.463 298.777 417.246C303.786 420.62 318.31 431.019 313.157 443.079L316.307 437.544C316.307 437.544 330.673 432.364 335.615 428.489C335.615 428.489 362.397 429.266 385.634 427.672L402.609 401.536C402.609 401.536 394.003 397.582 379.426 400.969Z" fill="#263238"/>
<path d="M338.726 444.529C346.806 442.288 353.435 440.048 356.084 435.224C358.734 430.4 364.915 425.207 375.024 429.952C386.504 435.224 399.354 431.705 408.435 431.375C417.516 431.046 423.843 439.085 427.032 446.018C432.397 457.709 422.736 451.975 414.261 450.46C405.786 448.944 385.845 451.33 377.897 452.911C364.889 455.547 342.39 470.796 318.442 488.339C318.442 488.339 305.5 459.659 303.865 454.585C303.878 454.532 330.673 446.783 338.726 444.529Z" fill="#B16668"/>
<path d="M423.909 440.483C420.364 435.409 415.158 431.072 408.449 431.323C399.368 431.652 386.517 435.277 375.038 429.899C364.929 425.207 358.734 430.4 356.098 435.171C353.462 439.943 346.872 442.236 338.74 444.477C330.608 446.717 303.879 454.48 303.879 454.48C304.393 456.062 304.92 457.393 307.042 462.322C319.985 457.551 350.839 447.613 375.894 443.027C403.941 437.939 416.805 433.577 423.909 440.483Z" fill="#9A4A4D"/>
<path d="M245.491 506.317C249.445 511.76 265.406 516.663 280.839 511.76C297.973 506.317 315.753 491.503 324.03 484.227C324.03 484.227 323.318 472.602 308.214 455.956C299.228 459.381 290.429 463.279 281.854 467.634C270.717 488.353 255.125 482.962 250.881 490.303C243.83 502.547 245.491 506.317 245.491 506.317Z" fill="#37474F"/>
<path d="M286.007 475.911C288.544 472.887 291.484 470.226 294.745 468.003C300.107 464.7 305.863 462.088 311.879 460.226C310.763 458.829 309.546 457.397 308.228 455.93C302.077 458.276 295.984 460.859 289.947 463.68C286.89 465.103 283.964 465.933 281.367 468.161C279.026 470.167 277.043 472.555 275.502 475.225C274.763 476.32 274.364 477.608 274.355 478.929C274.475 479.91 274.852 480.843 275.449 481.631C275.797 482.264 276.32 482.784 276.956 483.128C277.592 483.471 278.314 483.624 279.034 483.568C279.993 483.21 280.805 482.542 281.341 481.67C282.843 479.759 284.399 477.795 286.007 475.911Z" fill="#263238"/>
<path d="M361.276 411.987C339.688 425.325 324.755 430.439 316.926 428.449C311.654 427.131 302.573 422.834 297.156 432.561C293.999 437.978 289.753 442.681 284.688 446.374C280.984 449.194 276.529 451.646 273.682 455.455C270.835 459.264 270.308 463.495 270.361 467.963C270.361 470.77 270.598 473.736 272.18 476.055C272.625 476.767 273.235 477.362 273.957 477.791C274.679 478.22 275.493 478.469 276.331 478.52C279.785 478.52 281.524 473.722 283.37 471.469C285.711 468.712 288.495 466.365 291.607 464.523C297.907 460.687 304.998 458.473 311.878 455.956C319.14 453.32 346.66 445.412 369.119 440.285L361.276 411.987Z" fill="#B16668"/>
<path d="M424.08 386.643C453.643 392.521 449.913 412.264 438.578 421.398C428.206 429.702 413.101 432.351 395.928 435.356C378.754 438.361 368.25 440.496 368.25 440.496C368.25 440.496 360.579 427.448 361.37 411.988C371.255 405.055 384.672 398.702 402.926 401.378L424.08 386.643Z" fill="#37474F"/>
<path d="M340.98 260.325C356.032 261.999 361.713 266.217 366.497 281.73C371.769 298.626 387.361 352.177 387.361 352.177C392.633 355.182 436.404 379.024 440.2 376.652C441.794 375.65 443.784 370.695 444.509 368.955C445.568 366.382 446.448 363.74 447.145 361.047C447.778 358.635 448.305 356.091 450.203 354.299C450.64 353.871 451.158 353.535 451.725 353.309C452.293 353.082 452.9 352.971 453.511 352.981C456.24 353.112 457.531 355.775 458.23 358.173C459.102 361.572 459.653 365.045 459.877 368.546C460.444 374.214 460.918 383.136 459.653 386.076C458.586 388.567 451.745 396.554 446.012 398.188C440.279 399.822 403.836 385.417 380.955 378.616C368.514 374.912 366.589 372.026 363.821 365.726C360.197 357.383 342.167 311.951 342.167 311.951L340.98 260.325Z" fill="#B16668"/>
<path d="M350.839 355.116L356.111 373.911C352.408 386.366 342.839 395.355 315.86 397.292C295.286 398.768 275.002 393.522 268.609 379.908C271.799 367.176 276.741 355.116 281.328 343.004C281.328 343.004 271.601 316.644 271.601 316.485C274.237 314.574 278.877 302.95 280.827 288.807C281.763 282.138 281.196 271.001 277.822 264.2L301.546 260.022L329.58 259.205C336.289 259.574 341.06 260.22 341.06 260.22C344.882 265.202 349.956 275.021 356.533 286.58C360.382 293.328 368.211 309.948 351.881 325.566C352.052 327.781 350.589 351.544 350.839 355.116Z" fill="#5EA9BE"/>
<g opacity="0.8">
<path d="M350.839 355.116L356.111 373.911C352.408 386.366 342.839 395.355 315.86 397.292C295.286 398.768 275.002 393.522 268.609 379.908C271.799 367.176 276.741 355.116 281.328 343.004C281.328 343.004 271.601 316.644 271.601 316.485C274.237 314.574 278.877 302.95 280.827 288.807C281.763 282.138 281.196 271.001 277.822 264.2L301.546 260.022L329.58 259.205C336.289 259.574 341.06 260.22 341.06 260.22C344.882 265.202 349.956 275.021 356.533 286.58C360.382 293.328 368.211 309.948 351.881 325.566C352.052 327.781 350.589 351.544 350.839 355.116Z" fill="white"/>
</g>
<g opacity="0.05">
<path d="M340.953 391.624C334.956 394.537 326.837 396.501 315.805 397.305C295.245 398.781 274.947 393.522 268.568 379.907C271.745 367.175 276.687 355.129 281.274 343.003C281.274 343.003 271.547 316.643 271.547 316.485C271.735 316.345 271.907 316.186 272.061 316.01L272.298 315.747C272.691 315.253 273.043 314.728 273.353 314.178C273.432 314.046 273.511 313.888 273.603 313.743C273.84 313.295 274.104 312.794 274.368 312.254C274.631 311.714 274.723 311.49 274.895 311.094C275.422 309.895 275.962 308.524 276.49 307.022C276.661 306.508 276.845 305.994 277.017 305.466V305.321C277.122 304.992 277.241 304.649 277.333 304.306C277.544 303.621 277.755 302.988 277.966 302.198C278.387 300.708 278.796 299.1 279.165 297.453C279.244 297.123 279.323 296.807 279.389 296.478L281.195 302.712C281.195 302.712 279.416 315.892 281.195 321.915C282.974 327.938 294.375 344.057 295.271 347.247C296.167 350.436 288.879 350.397 284.635 359.03C280.391 367.663 281.445 381.713 295.35 389.344C313.683 399.4 339.912 391.927 340.953 391.624Z" fill="black"/>
</g>
<path opacity="0.05" d="M297.486 314.917C297.486 314.917 299.278 322.1 309.638 326.568C313.789 328.488 318.432 329.078 322.932 328.257C327.431 327.436 331.567 325.244 334.772 321.981C334.772 321.981 326.956 337.639 308.214 330.548C295.812 325.83 297.486 314.917 297.486 314.917Z" fill="black"/>
<path d="M276.293 315.088C280.24 306.751 283.064 297.927 284.689 288.847C287.47 272.939 282.58 263.396 282.58 263.396C265.367 265.097 258.724 270.158 247.6 303.912C239.837 327.451 229.227 356.171 225.642 376.204C223.916 385.891 232.931 430.651 237.939 447.086C239.257 451.449 245.175 459.37 252.964 462.375C258.236 463.469 269.967 453.228 271.68 449.722C273.776 443.211 277.822 424.403 275.515 419.316C273.38 414.624 269.097 414.255 264.892 418.38C261.103 422.037 258.106 426.433 256.088 431.297C254.322 414.163 252.964 379.222 252.964 379.222L276.293 315.088Z" fill="#B16668"/>
<path d="M346.806 184.422C351.485 187.19 356.968 194.847 356.401 219.507C355.914 240.424 349.139 245.59 345.739 247.08C342.338 248.569 335.775 247.66 329.396 246.592V259.152C329.396 259.152 338.213 269.393 337.659 275.14C337.106 280.886 324.928 282.257 316.664 276.642C308.4 271.028 301.467 260.062 301.467 260.062L301.612 231.198C301.612 231.198 297.856 234.849 291.49 229.287C286.218 224.687 284.465 216.937 288.551 212.785C292.637 208.634 300.228 209.754 303.128 215.685L309.098 214.037C309.075 211.362 309.813 208.735 311.228 206.464C312.642 204.193 314.674 202.372 317.085 201.213C318.26 200.685 319.471 200.245 320.71 199.895C334.602 195.743 341.561 195.467 346.806 184.422Z" fill="#B16668"/>
<path d="M309.098 211.138L303.141 212.785V222.591C304.724 222.591 306.243 221.962 307.362 220.842C308.482 219.723 309.111 218.204 309.111 216.621L309.098 211.138Z" fill="#263238"/>
<path d="M329.394 246.591C322.672 245.708 308.833 241.741 306.672 236.271C307.539 239.04 309.231 241.477 311.522 243.257C315.661 246.789 329.394 250.783 329.394 250.783V246.591Z" fill="#9A4A4D"/>
<path d="M331.174 211.639C331.037 212.649 330.564 213.584 329.832 214.293C329.1 215.003 328.15 215.445 327.136 215.55C326.122 215.655 325.102 215.416 324.24 214.872C323.378 214.327 322.724 213.509 322.383 212.548C323.7 213.513 325.329 213.954 326.953 213.786C328.578 213.618 330.082 212.852 331.174 211.639Z" fill="#263238"/>
<path d="M354.463 211.23C354.18 212.216 353.572 213.077 352.738 213.674C351.904 214.271 350.893 214.568 349.869 214.518C348.844 214.468 347.867 214.072 347.095 213.397C346.324 212.721 345.804 211.804 345.619 210.795C346.776 211.94 348.316 212.616 349.942 212.693C351.577 212.771 353.184 212.251 354.463 211.23Z" fill="#263238"/>
<path d="M325.903 203.098L319.932 206.393C319.508 205.574 319.416 204.624 319.677 203.739C319.937 202.855 320.529 202.106 321.329 201.648C321.723 201.433 322.156 201.3 322.602 201.257C323.048 201.213 323.498 201.261 323.926 201.396C324.353 201.532 324.748 201.753 325.088 202.045C325.428 202.337 325.705 202.695 325.903 203.098Z" fill="#263238"/>
<path d="M331.147 231.197L337.513 233.596C337.375 234.024 337.153 234.419 336.859 234.759C336.564 235.098 336.205 235.374 335.801 235.571C335.397 235.768 334.958 235.882 334.509 235.905C334.06 235.928 333.612 235.86 333.19 235.705C332.331 235.365 331.638 234.705 331.257 233.864C330.876 233.023 330.836 232.067 331.147 231.197Z" fill="#9A4A4D"/>
<path d="M354.793 203.81L348.309 201.516C348.44 201.088 348.656 200.69 348.945 200.347C349.233 200.004 349.589 199.723 349.989 199.521C350.389 199.319 350.826 199.2 351.273 199.172C351.721 199.143 352.169 199.206 352.592 199.355C353.457 199.677 354.167 200.318 354.576 201.146C354.985 201.974 355.063 202.927 354.793 203.81Z" fill="#263238"/>
<path d="M337.514 208.476L338.436 225.267L347.201 222.275L337.514 208.476Z" fill="#9A4A4D"/>
</svg>
