<svg width="263" height="40" viewBox="0 0 263 40" fill="none" xmlns="http://www.w3.org/2000/svg">
<path d="M17.5908 36.2993C18.165 37.1216 18.9055 37.7613 19.8123 38.2182C20.719 38.6598 21.7089 38.8806 22.7818 38.8806C24.0966 38.8806 25.3358 38.5608 26.4995 37.9212C27.6631 37.2816 28.6757 36.4135 29.5371 35.317C30.4136 34.2204 31.1087 32.9488 31.6226 31.502C32.1364 30.0552 32.3933 28.517 32.3933 26.8875C32.3933 24.8772 31.9777 23.2705 31.1465 22.0674C30.3305 20.8643 29.1215 20.0495 27.5196 19.6231C27.4742 19.6383 27.3684 19.6459 27.2022 19.6459C27.0209 19.6459 26.8697 19.6231 26.7488 19.5774C26.643 19.5165 26.5902 19.4403 26.5902 19.3489C26.5902 19.2728 26.6506 19.2043 26.7715 19.1433C26.8924 19.0672 27.0511 19.0291 27.2475 19.0291C27.4591 19.0291 27.6631 19.09 27.8596 19.2119C29.0837 18.9377 30.2171 18.4656 31.2599 17.7955C32.3177 17.1102 33.232 16.2955 34.0028 15.3512C34.7886 14.3918 35.4007 13.3409 35.8389 12.1987C36.2923 11.0565 36.519 9.87626 36.519 8.65791C36.519 7.28726 36.2167 6.19075 35.6122 5.36836C35.0077 4.53074 34.0632 3.9368 32.7787 3.58652C32.3706 3.75405 31.955 3.97487 31.5319 4.249C31.1087 4.5079 30.6932 4.80487 30.2851 5.13992C29.8922 5.47497 29.5219 5.83286 29.1744 6.21359C28.8268 6.5791 28.5245 6.9446 28.2676 7.31011C28.1316 7.50809 27.9956 7.73653 27.8596 7.99543C27.7236 8.2391 27.5649 8.56653 27.3836 8.97773C27.2173 9.38892 27.0057 9.91433 26.7488 10.554C26.507 11.1784 26.2048 11.9703 25.8421 12.9298C25.4945 13.874 25.0789 15.0086 24.5953 16.3335C24.1117 17.6585 23.5375 19.2271 22.8725 21.0394C21.6938 24.2833 20.4772 27.1007 19.2229 29.4917C17.9686 31.8675 16.6614 33.8397 15.3012 35.4083C13.9411 36.9617 12.513 38.1192 11.0169 38.8806C9.52077 39.6269 7.94909 40 6.30184 40C2.10062 40 0 37.5633 0 32.6899C0 31.6086 0.0982302 30.474 0.294691 29.2861C0.491151 28.0982 0.778285 26.8875 1.15609 25.6539C1.5339 24.4203 1.99483 23.1868 2.53887 21.9532C3.08292 20.7044 3.70252 19.486 4.39769 18.2981C5.81825 15.8614 7.47305 13.6608 9.36209 11.6962C11.2511 9.71635 13.2762 8.04112 15.4373 6.67047C17.6134 5.2846 19.8878 4.21854 22.2605 3.4723C24.6482 2.72606 27.0435 2.35294 29.4464 2.35294C31.0181 2.35294 32.4235 2.51285 33.6627 2.83267C34.9171 3.15248 35.9749 3.61698 36.8363 4.22616C37.6977 4.83533 38.3551 5.58157 38.8085 6.46488C39.2619 7.34818 39.4885 8.34571 39.4885 9.45745C39.4885 10.7672 39.1863 12.016 38.5818 13.2039C37.9924 14.3918 37.1763 15.4426 36.1336 16.3564C35.106 17.2549 33.9045 17.9859 32.5293 18.5494C31.1541 19.0977 29.6957 19.3946 28.1543 19.4403C30.7385 20.019 32.6578 21.0089 33.9121 22.4101C35.1815 23.7959 35.8162 25.5702 35.8162 27.7327C35.8162 28.8292 35.6576 29.8953 35.3402 30.9309C35.0228 31.9665 34.577 32.9412 34.0028 33.8549C33.4436 34.7535 32.7635 35.5835 31.9626 36.3449C31.1616 37.0912 30.2776 37.7384 29.3104 38.2867C28.3583 38.835 27.3382 39.2538 26.2501 39.5431C25.162 39.8477 24.0362 40 22.8725 40C22.2076 40 21.6031 39.9467 21.059 39.8401C20.515 39.7335 20.0012 39.5583 19.5176 39.3147C19.034 39.0862 18.5731 38.7893 18.1348 38.4238C17.7117 38.043 17.2885 37.5861 16.8654 37.0531L17.5908 36.2993ZM23.4619 11.0337C24.1268 9.81534 24.7993 8.77975 25.4794 7.9269C26.1746 7.07405 26.8697 6.35827 27.5649 5.77955C28.2752 5.18561 28.9855 4.70588 29.6957 4.34038C30.4211 3.95964 31.1541 3.64744 31.8946 3.40377C31.547 3.34285 31.1692 3.29716 30.7612 3.2667C30.3531 3.23625 29.93 3.22102 29.4917 3.22102C27.2249 3.22102 24.9505 3.59414 22.6685 4.34038C20.4017 5.07139 18.2179 6.1146 16.1173 7.47002C14.0318 8.8102 12.0748 10.4321 10.2462 12.3358C8.43268 14.2243 6.84589 16.3183 5.48578 18.6179C4.11056 20.948 3.06025 23.3238 2.33486 25.7453C1.62458 28.1515 1.26944 30.4816 1.26944 32.7356C1.26944 33.8321 1.36011 34.7687 1.54146 35.5454C1.73792 36.3221 2.03261 36.9617 2.42553 37.4643C2.83356 37.9516 3.34738 38.3095 3.96699 38.538C4.60171 38.7664 5.36488 38.8806 6.25651 38.8806C7.04235 38.8806 7.76018 38.7893 8.41002 38.6065C9.07496 38.4238 9.70212 38.1116 10.2915 37.6699C10.896 37.2283 11.4854 36.6495 12.0596 35.9338C12.6339 35.218 13.2157 34.3271 13.8051 33.261C14.3945 32.1949 15.0141 30.9385 15.6639 29.4917C16.3138 28.0449 17.024 26.3773 17.7948 24.4889C18.3842 23.0421 18.9282 21.679 19.4269 20.3998C19.9256 19.1205 20.4017 17.925 20.855 16.8132C21.3084 15.6863 21.7467 14.6431 22.1698 13.6836C22.5929 12.7242 23.0236 11.8409 23.4619 11.0337Z" fill="#FFDDD3"/>
<path d="M61.681 13.6608C61.681 13.4171 61.5223 13.1734 61.205 12.9298C60.9027 12.6709 60.4569 12.5414 59.8675 12.5414C59.263 12.5414 58.6056 12.7318 57.8954 13.1125C57.1851 13.478 56.3766 14.1329 55.4698 15.0771C54.5631 16.0213 53.543 17.3082 52.4096 18.9377C51.2913 20.5673 50.0218 22.6461 48.6013 25.1742L47.4678 27.1845L43.1835 39.1091H39.8059L49.5987 12.0388H52.9536L48.9866 23.004C50.2259 20.8567 51.3593 19.0596 52.3869 17.6128C53.4146 16.1508 54.3666 14.9781 55.2431 14.0948C56.1197 13.1963 56.9433 12.5566 57.714 12.1759C58.4847 11.7952 59.2404 11.6048 59.9809 11.6048C60.9783 11.6048 61.7566 11.9018 62.3157 12.4957C62.89 13.0897 63.1771 13.8664 63.1771 14.8258C63.1771 15.2218 63.1242 15.6025 63.0184 15.968C62.9278 16.3183 62.7842 16.6229 62.5877 16.8818C62.4064 17.1407 62.1797 17.3463 61.9077 17.4986C61.6357 17.6509 61.3334 17.727 61.0009 17.727C60.7592 17.727 60.5174 17.6889 60.2756 17.6128C60.0489 17.5366 59.8449 17.4224 59.6635 17.2701C59.4822 17.1026 59.331 16.9046 59.2101 16.6762C59.1043 16.4477 59.0515 16.1812 59.0515 15.8766C59.0515 15.633 59.0892 15.3893 59.1648 15.1456C59.2555 14.8867 59.3764 14.6659 59.5275 14.4832C59.6786 14.2852 59.86 14.1253 60.0715 14.0034C60.2831 13.8816 60.5174 13.8207 60.7743 13.8207C60.9405 13.8207 61.0992 13.8359 61.2503 13.8664C61.2805 13.8968 61.3183 13.9273 61.3636 13.9577C61.4241 13.973 61.4694 13.9806 61.4997 13.9806C61.6206 13.9806 61.681 13.874 61.681 13.6608Z" fill="#FFDDD3"/>
<path d="M73.6273 39.5431C70.892 39.5431 68.7838 38.8273 67.3028 37.3958C65.8218 35.949 65.0813 33.8016 65.0813 30.9537C65.0813 30.177 65.1417 29.3547 65.2626 28.4866C65.3684 27.6185 65.5422 26.7276 65.784 25.8138C66.328 23.7731 67.0912 21.8846 68.0735 20.1485C69.0709 18.4123 70.2119 16.9122 71.4965 15.6482C72.781 14.3842 74.1638 13.3943 75.6448 12.6785C77.1258 11.9627 78.6144 11.6048 80.1105 11.6048C81.6217 11.6048 82.8081 11.9627 83.6694 12.6785C84.546 13.3943 84.9842 14.3994 84.9842 15.6939C84.9842 16.4249 84.8407 17.1407 84.5535 17.8412C84.2664 18.5418 83.8508 19.2043 83.3068 19.8287C82.7627 20.4531 82.1053 21.0394 81.3346 21.5877C80.579 22.1207 79.7251 22.5852 78.7731 22.9812C77.5943 23.4837 76.2946 23.8645 74.8741 24.1234C73.4535 24.367 71.8365 24.4889 70.023 24.4889C69.5848 25.7224 69.2372 27.0093 68.9803 28.3495C68.7385 29.6745 68.6176 31.0299 68.6176 32.4158C68.6176 34.5326 69.0558 36.0632 69.9323 37.0074C70.824 37.9364 72.2219 38.4009 74.126 38.4009C75.7128 38.4009 77.224 38.0963 78.6597 37.4872C80.0954 36.8627 81.4253 36.048 82.6494 35.0428C83.8735 34.0377 84.9918 32.8955 86.0043 31.6162C87.0168 30.3217 87.9009 29.0044 88.6565 27.6642L89.8353 25.5625L90.4473 25.9966L89.2686 28.0982C88.3316 29.7582 87.304 31.2888 86.1857 32.6899C85.0825 34.091 83.8735 35.3017 82.5587 36.3221C81.259 37.3272 79.8611 38.1192 78.365 38.6979C76.884 39.2614 75.3048 39.5431 73.6273 39.5431ZM80.7452 12.5186C79.7931 12.5186 78.8184 12.8003 77.821 13.3638C76.8387 13.9273 75.8866 14.7116 74.9647 15.7167C74.0429 16.7066 73.1815 17.8793 72.3805 19.2347C71.5796 20.5901 70.8844 22.0674 70.295 23.6665C71.9574 23.636 73.378 23.4913 74.5567 23.2324C75.7355 22.9583 76.7631 22.6156 77.6396 22.2045C78.3348 21.8846 79.0073 21.4734 79.6571 20.9709C80.3221 20.4531 80.9039 19.8667 81.4026 19.2119C81.9164 18.557 82.3245 17.8488 82.6267 17.0874C82.9441 16.3259 83.1027 15.534 83.1027 14.7116C83.1027 14.3004 83.0423 13.9577 82.9214 13.6836C82.8005 13.4095 82.6343 13.1887 82.4227 13.0211C82.2111 12.8384 81.9618 12.7089 81.6746 12.6328C81.3875 12.5566 81.0777 12.5186 80.7452 12.5186Z" fill="#FFDDD3"/>
<path d="M89.7673 25.7681C90.3113 24.1234 90.9612 22.6309 91.7168 21.2907C92.4724 19.9353 93.2885 18.7322 94.165 17.6813C95.0566 16.6305 95.986 15.7243 96.9532 14.9629C97.9355 14.2014 98.9102 13.577 99.8774 13.0897C100.86 12.5871 101.819 12.214 102.756 11.9703C103.708 11.7266 104.6 11.6048 105.431 11.6048C106.293 11.6048 107.01 11.7419 107.585 12.016C108.159 12.2749 108.62 12.648 108.968 13.1354C109.33 13.6075 109.587 14.1862 109.738 14.8715C109.889 15.5416 109.965 16.2878 109.965 17.1102L111.801 12.0388H115.156L109.376 28.0297C109.164 28.6236 108.952 29.2328 108.741 29.8572C108.529 30.4664 108.34 31.0756 108.174 31.6848C108.023 32.2787 107.895 32.8574 107.789 33.4209C107.698 33.9692 107.653 34.4793 107.653 34.9515C107.653 36.0023 107.925 36.8399 108.469 37.4643C109.028 38.0887 109.889 38.4009 111.053 38.4009C112.066 38.4009 113.048 38.1877 114 37.7613C114.952 37.3196 115.889 36.6572 116.811 35.7738C117.748 34.8753 118.685 33.756 119.622 32.4158C120.559 31.0603 121.526 29.4765 122.523 27.6642L123.679 25.5625L124.291 25.9966L123.113 28.0982C122.009 30.0781 120.952 31.7914 119.939 33.2382C118.942 34.6697 117.944 35.8576 116.947 36.8018C115.949 37.7308 114.929 38.4238 113.887 38.8806C112.844 39.3223 111.733 39.5431 110.554 39.5431C109.632 39.5431 108.816 39.3984 108.106 39.1091C107.411 38.835 106.822 38.439 106.338 37.9212C105.869 37.4034 105.514 36.779 105.273 36.048C105.031 35.317 104.91 34.5022 104.91 33.6037C104.91 33.0097 104.963 32.3701 105.069 31.6848C105.174 30.9842 105.333 30.2608 105.545 29.5146C103.565 32.865 101.608 35.3779 99.6734 37.0531C97.739 38.7131 95.7744 39.5431 93.7796 39.5431C92.8426 39.5431 92.0417 39.3756 91.3767 39.0406C90.7269 38.6903 90.1904 38.2105 89.7673 37.6014C89.3441 36.977 89.0343 36.2536 88.8379 35.4312C88.6414 34.5936 88.5432 33.6798 88.5432 32.6899C88.5432 31.6238 88.649 30.5045 88.8605 29.3318C89.0721 28.1439 89.3744 26.956 89.7673 25.7681ZM94.5957 38.4009C95.4117 38.4009 96.2429 38.1877 97.0892 37.7613C97.9355 37.3196 98.7742 36.7257 99.6054 35.9794C100.452 35.218 101.268 34.3347 102.054 33.3295C102.839 32.3092 103.58 31.2279 104.275 30.0857C104.985 28.9282 105.635 27.7403 106.225 26.522C106.814 25.3036 107.32 24.1081 107.743 22.9355C108.182 21.7476 108.514 20.6206 108.741 19.5545C108.983 18.4733 109.104 17.5062 109.104 16.6533C109.104 15.8766 109.005 15.2294 108.809 14.7116C108.627 14.1786 108.378 13.7521 108.061 13.4323C107.759 13.0973 107.403 12.8612 106.995 12.7242C106.602 12.5871 106.194 12.5186 105.771 12.5186C104.925 12.5186 103.98 12.7851 102.938 13.3181C101.91 13.8359 100.86 14.6354 99.7868 15.7167C98.7138 16.7828 97.6559 18.1382 96.6132 19.783C95.5855 21.4125 94.641 23.3314 93.7796 25.5397C93.0693 27.3824 92.5328 29.0881 92.1701 30.6568C91.8226 32.2254 91.6488 33.5351 91.6488 34.586C91.6488 35.7738 91.883 36.7105 92.3515 37.3958C92.8351 38.0659 93.5831 38.4009 94.5957 38.4009Z" fill="#FFDDD3"/>
<path d="M121.889 12.0388H128.508L130.661 6.05368H134.016L131.863 12.0388H138.663V12.9526H131.523L126.082 28.0297C125.871 28.6236 125.659 29.2328 125.448 29.8572C125.251 30.4816 125.07 31.0984 124.903 31.7076C124.752 32.3015 124.624 32.8803 124.518 33.4437C124.427 33.992 124.382 34.4946 124.382 34.9515C124.382 36.0023 124.662 36.8399 125.221 37.4643C125.795 38.0887 126.656 38.4009 127.805 38.4009C128.923 38.4009 130.011 38.1877 131.069 37.7613C132.127 37.3349 133.17 36.68 134.198 35.7967C135.225 34.9134 136.245 33.8016 137.258 32.4615C138.27 31.106 139.29 29.5069 140.318 27.6642L141.497 25.5625L142.109 25.9966L140.93 28.0982C139.736 30.2303 138.58 32.0274 137.462 33.4894C136.344 34.9362 135.233 36.1089 134.13 37.0074C133.041 37.906 131.931 38.5532 130.797 38.9492C129.679 39.3451 128.515 39.5431 127.306 39.5431C126.384 39.5431 125.568 39.3984 124.858 39.1091C124.148 38.835 123.558 38.439 123.09 37.9212C122.606 37.4034 122.244 36.779 122.002 36.048C121.745 35.317 121.617 34.5022 121.617 33.6037C121.617 32.8117 121.707 31.9437 121.889 30.9994C122.07 30.0552 122.349 29.0653 122.727 28.0297L128.168 12.9526H121.889V12.0388Z" fill="#FFDDD3"/>
<path d="M150.7 0H154.078L146.167 21.8618C147.194 20.1256 148.169 18.6179 149.091 17.3387C150.028 16.0442 150.957 14.9781 151.879 14.1405C152.801 13.2876 153.745 12.6556 154.713 12.2444C155.68 11.818 156.715 11.6048 157.818 11.6048C158.74 11.6048 159.548 11.7571 160.244 12.0617C160.954 12.3663 161.543 12.8003 162.012 13.3638C162.495 13.9121 162.858 14.5745 163.1 15.3512C163.342 16.1279 163.463 16.996 163.463 17.9555C163.463 18.6408 163.334 19.4479 163.077 20.3769C162.835 21.3059 162.526 22.2958 162.148 23.3467C161.77 24.3975 161.362 25.4788 160.924 26.5905C160.485 27.687 160.077 28.7531 159.7 29.7887C159.322 30.8243 159.004 31.7914 158.748 32.6899C158.506 33.5732 158.385 34.3271 158.385 34.9515C158.385 36.0023 158.657 36.8399 159.201 37.4643C159.76 38.0887 160.621 38.4009 161.785 38.4009C162.798 38.4009 163.772 38.1801 164.709 37.7384C165.661 37.2968 166.598 36.6343 167.52 35.751C168.457 34.8525 169.394 33.7331 170.331 32.3929C171.268 31.0375 172.243 29.4613 173.255 27.6642L174.434 25.5625L175.046 25.9966L173.867 28.0982C172.764 30.0628 171.706 31.7685 170.694 33.2153C169.696 34.6469 168.691 35.8348 167.679 36.779C166.682 37.708 165.661 38.4009 164.619 38.8578C163.576 39.3147 162.465 39.5431 161.286 39.5431C160.365 39.5431 159.548 39.3984 158.838 39.1091C158.143 38.835 157.554 38.439 157.07 37.9212C156.602 37.4034 156.246 36.779 156.005 36.048C155.763 35.317 155.642 34.5022 155.642 33.6037C155.642 32.9488 155.763 32.1645 156.005 31.2507C156.262 30.3217 156.579 29.3242 156.957 28.2581C157.335 27.1921 157.743 26.1032 158.181 24.9914C158.619 23.8645 159.027 22.7832 159.405 21.7476C159.783 20.712 160.093 19.7525 160.334 18.8692C160.591 17.9707 160.72 17.2244 160.72 16.6305C160.72 15.4426 160.44 14.4984 159.881 13.7978C159.337 13.0973 158.483 12.747 157.319 12.747C156.292 12.747 155.302 12.9907 154.35 13.478C153.398 13.9654 152.415 14.7421 151.403 15.8081C150.406 16.8589 149.355 18.222 148.252 19.8972C147.164 21.5724 145.978 23.6056 144.693 25.9966L139.933 39.1091H136.578L150.7 0Z" fill="#FFDDD3"/>
<path d="M195.13 21.542C195.599 19.6992 196.211 17.9478 196.967 16.2878C197.737 14.6278 198.614 13.0897 199.596 11.6733C200.578 10.2418 201.659 8.95488 202.838 7.81268C204.017 6.67047 205.256 5.69579 206.555 4.88864C207.855 4.06625 209.2 3.44184 210.59 3.01542C211.981 2.57377 213.386 2.35294 214.807 2.35294C217.663 2.35294 219.847 3.24386 221.358 5.0257C222.869 6.80754 223.625 9.38892 223.625 12.7698C223.625 14.2166 223.481 15.7396 223.194 17.3387C222.922 18.9377 222.522 20.5445 221.993 22.1588C221.418 23.8797 220.723 25.5168 219.907 27.0702C219.106 28.6236 218.215 30.0628 217.232 31.3878C216.25 32.6975 215.2 33.8854 214.081 34.9515C212.963 36.0175 211.799 36.9237 210.59 37.6699C209.381 38.4161 208.15 38.9872 206.895 39.3832C205.641 39.7944 204.394 40 203.155 40C201.75 40 200.495 39.7411 199.392 39.2233C198.289 38.7055 197.352 37.9593 196.581 36.9846C195.811 35.9947 195.221 34.7915 194.813 33.3752C194.42 31.9437 194.224 30.3293 194.224 28.5323C194.224 27.4205 194.299 26.2783 194.45 25.1057C194.602 23.9178 194.828 22.7299 195.13 21.542ZM203.495 38.8806C204.991 38.8806 206.518 38.4466 208.074 37.5785C209.646 36.7105 211.157 35.4997 212.608 33.9463C214.074 32.3929 215.434 30.5502 216.688 28.418C217.958 26.2707 219.046 23.9178 219.952 21.3592C220.602 19.5165 221.101 17.7118 221.449 15.9452C221.811 14.1633 221.993 12.5566 221.993 11.1251C221.993 9.89149 221.849 8.78736 221.562 7.81268C221.29 6.82277 220.882 5.99277 220.338 5.32267C219.809 4.63735 219.159 4.11955 218.388 3.76927C217.618 3.40377 216.749 3.22102 215.781 3.22102C214.739 3.22102 213.681 3.42661 212.608 3.83781C211.535 4.249 210.47 4.83533 209.412 5.5968C208.369 6.34304 207.349 7.25681 206.351 8.33809C205.369 9.40415 204.44 10.6073 203.563 11.9475C202.687 13.2724 201.878 14.7116 201.138 16.265C200.397 17.8184 199.755 19.4479 199.211 21.1536C198.697 22.8136 198.304 24.4508 198.032 26.0651C197.76 27.6642 197.624 29.1643 197.624 30.5654C197.624 33.2762 198.123 35.3398 199.12 36.7561C200.118 38.1725 201.576 38.8806 203.495 38.8806Z" fill="#FFDDD3"/>
<path d="M234.324 12.0388H237.679L234.12 21.8618C235.133 20.1256 236.108 18.6179 237.045 17.3387C237.982 16.0442 238.911 14.9781 239.833 14.1405C240.77 13.2876 241.714 12.6556 242.666 12.2444C243.618 11.818 244.623 11.6048 245.681 11.6048C246.633 11.6048 247.465 11.7647 248.175 12.0845C248.885 12.3891 249.482 12.8155 249.966 13.3638C250.449 13.8968 250.812 14.5212 251.054 15.237C251.295 15.9528 251.416 16.7066 251.416 17.4986C251.416 18.3666 251.288 19.3109 251.031 20.3312C250.789 21.3516 250.479 22.4024 250.102 23.4837C249.724 24.565 249.316 25.6615 248.878 26.7733C248.439 27.8698 248.031 28.9282 247.653 29.9486C247.276 30.969 246.958 31.9284 246.701 32.827C246.46 33.7103 246.339 34.487 246.339 35.1571C246.339 36.086 246.618 36.8627 247.177 37.4872C247.752 38.0963 248.643 38.4009 249.852 38.4009C250.819 38.4009 251.764 38.1801 252.686 37.7384C253.623 37.2816 254.552 36.6115 255.474 35.7282C256.411 34.8296 257.348 33.7103 258.285 32.3701C259.237 31.0147 260.212 29.446 261.209 27.6642L262.388 25.5625L263 25.9966L261.821 28.0982C260.733 30.0171 259.69 31.7 258.693 33.1468C257.696 34.5783 256.698 35.7662 255.701 36.7105C254.703 37.6547 253.683 38.3628 252.64 38.835C251.613 39.3071 250.517 39.5431 249.354 39.5431C248.401 39.5431 247.563 39.3984 246.837 39.1091C246.127 38.8197 245.53 38.4238 245.047 37.9212C244.563 37.4186 244.2 36.8399 243.958 36.185C243.717 35.5149 243.596 34.8068 243.596 34.0605C243.596 33.2686 243.717 32.3853 243.958 31.4106C244.215 30.4207 244.533 29.3927 244.911 28.3267C245.288 27.2454 245.696 26.1565 246.135 25.06C246.573 23.9482 246.981 22.8745 247.359 21.8389C247.737 20.7881 248.046 19.7982 248.288 18.8692C248.545 17.925 248.674 17.0874 248.674 16.3564C248.674 15.8386 248.605 15.3588 248.469 14.9172C248.333 14.4755 248.114 14.0948 247.812 13.775C247.525 13.4552 247.155 13.2039 246.701 13.0211C246.263 12.8384 245.734 12.747 245.115 12.747C244.162 12.747 243.233 12.9831 242.326 13.4552C241.42 13.9121 240.505 14.605 239.583 15.534C238.677 16.463 237.747 17.628 236.795 19.0291C235.858 20.415 234.868 22.0369 233.826 23.8949L232.647 25.9966L227.886 39.1091H224.532L234.324 12.0388Z" fill="#FFDDD3"/>
</svg>
