<svg width="264" height="40" viewBox="0 0 264 40" fill="none" xmlns="http://www.w3.org/2000/svg">
<path d="M18.0908 36.2993C18.665 37.1216 19.4055 37.7613 20.3123 38.2182C21.219 38.6598 22.2089 38.8806 23.2818 38.8806C24.5966 38.8806 25.8358 38.5608 26.9995 37.9212C28.1631 37.2816 29.1757 36.4135 30.0371 35.317C30.9136 34.2204 31.6087 32.9488 32.1226 31.502C32.6364 30.0552 32.8933 28.517 32.8933 26.8875C32.8933 24.8772 32.4777 23.2705 31.6465 22.0674C30.8305 20.8643 29.6215 20.0495 28.0196 19.6231C27.9742 19.6383 27.8684 19.6459 27.7022 19.6459C27.5209 19.6459 27.3697 19.6231 27.2488 19.5774C27.143 19.5165 27.0902 19.4403 27.0902 19.3489C27.0902 19.2728 27.1506 19.2043 27.2715 19.1433C27.3924 19.0672 27.5511 19.0291 27.7475 19.0291C27.9591 19.0291 28.1631 19.09 28.3596 19.2119C29.5837 18.9377 30.7171 18.4656 31.7599 17.7955C32.8177 17.1102 33.732 16.2955 34.5028 15.3512C35.2886 14.3918 35.9007 13.3409 36.3389 12.1987C36.7923 11.0565 37.019 9.87626 37.019 8.65791C37.019 7.28726 36.7167 6.19075 36.1122 5.36836C35.5077 4.53074 34.5632 3.9368 33.2787 3.58652C32.8706 3.75405 32.455 3.97487 32.0319 4.249C31.6087 4.5079 31.1932 4.80487 30.7851 5.13992C30.3922 5.47497 30.0219 5.83286 29.6744 6.21359C29.3268 6.5791 29.0245 6.9446 28.7676 7.31011C28.6316 7.50809 28.4956 7.73653 28.3596 7.99543C28.2236 8.2391 28.0649 8.56653 27.8836 8.97773C27.7173 9.38892 27.5057 9.91433 27.2488 10.554C27.007 11.1784 26.7048 11.9703 26.3421 12.9298C25.9945 13.874 25.5789 15.0086 25.0953 16.3335C24.6117 17.6585 24.0375 19.2271 23.3725 21.0394C22.1938 24.2833 20.9772 27.1007 19.7229 29.4917C18.4686 31.8675 17.1614 33.8397 15.8012 35.4083C14.4411 36.9617 13.013 38.1192 11.5169 38.8806C10.0208 39.6269 8.44909 40 6.80184 40C2.60062 40 0.5 37.5633 0.5 32.6899C0.5 31.6086 0.59823 30.474 0.794691 29.2861C0.991151 28.0982 1.27829 26.8875 1.65609 25.6539C2.0339 24.4203 2.49483 23.1868 3.03887 21.9532C3.58292 20.7044 4.20252 19.486 4.89769 18.2981C6.31825 15.8614 7.97305 13.6608 9.86209 11.6962C11.7511 9.71635 13.7762 8.04112 15.9373 6.67047C18.1134 5.2846 20.3878 4.21854 22.7605 3.4723C25.1482 2.72606 27.5435 2.35294 29.9464 2.35294C31.5181 2.35294 32.9235 2.51285 34.1627 2.83267C35.4171 3.15248 36.4749 3.61698 37.3363 4.22616C38.1977 4.83533 38.8551 5.58157 39.3085 6.46488C39.7619 7.34818 39.9885 8.34571 39.9885 9.45745C39.9885 10.7672 39.6863 12.016 39.0818 13.2039C38.4924 14.3918 37.6763 15.4426 36.6336 16.3564C35.606 17.2549 34.4045 17.9859 33.0293 18.5494C31.6541 19.0977 30.1957 19.3946 28.6543 19.4403C31.2385 20.019 33.1578 21.0089 34.4121 22.4101C35.6815 23.7959 36.3162 25.5702 36.3162 27.7327C36.3162 28.8292 36.1576 29.8953 35.8402 30.9309C35.5228 31.9665 35.077 32.9412 34.5028 33.8549C33.9436 34.7535 33.2635 35.5835 32.4626 36.3449C31.6616 37.0912 30.7776 37.7384 29.8104 38.2867C28.8583 38.835 27.8382 39.2538 26.7501 39.5431C25.662 39.8477 24.5362 40 23.3725 40C22.7076 40 22.1031 39.9467 21.559 39.8401C21.015 39.7335 20.5012 39.5583 20.0176 39.3147C19.534 39.0862 19.0731 38.7893 18.6348 38.4238C18.2117 38.043 17.7885 37.5861 17.3654 37.0531L18.0908 36.2993ZM23.9619 11.0337C24.6268 9.81534 25.2993 8.77975 25.9794 7.9269C26.6746 7.07405 27.3697 6.35827 28.0649 5.77955C28.7752 5.18561 29.4855 4.70588 30.1957 4.34038C30.9211 3.95964 31.6541 3.64744 32.3946 3.40377C32.047 3.34285 31.6692 3.29716 31.2612 3.2667C30.8531 3.23625 30.43 3.22102 29.9917 3.22102C27.7249 3.22102 25.4505 3.59414 23.1685 4.34038C20.9017 5.07139 18.7179 6.1146 16.6173 7.47002C14.5318 8.8102 12.5748 10.4321 10.7462 12.3358C8.93268 14.2243 7.34589 16.3183 5.98578 18.6179C4.61056 20.948 3.56025 23.3238 2.83486 25.7453C2.12458 28.1515 1.76944 30.4816 1.76944 32.7356C1.76944 33.8321 1.86011 34.7687 2.04146 35.5454C2.23792 36.3221 2.53261 36.9617 2.92553 37.4643C3.33356 37.9516 3.84738 38.3095 4.46699 38.538C5.10171 38.7664 5.86488 38.8806 6.75651 38.8806C7.54235 38.8806 8.26018 38.7893 8.91002 38.6065C9.57496 38.4238 10.2021 38.1116 10.7915 37.6699C11.396 37.2283 11.9854 36.6495 12.5596 35.9338C13.1339 35.218 13.7157 34.3271 14.3051 33.261C14.8945 32.1949 15.5141 30.9385 16.1639 29.4917C16.8138 28.0449 17.524 26.3773 18.2948 24.4889C18.8842 23.0421 19.4282 21.679 19.9269 20.3998C20.4256 19.1205 20.9017 17.925 21.355 16.8132C21.8084 15.6863 22.2467 14.6431 22.6698 13.6836C23.0929 12.7242 23.5236 11.8409 23.9619 11.0337Z" fill="#5EA9BE"/>
<path d="M62.181 13.6608C62.181 13.4171 62.0223 13.1734 61.705 12.9298C61.4027 12.6709 60.9569 12.5414 60.3675 12.5414C59.763 12.5414 59.1056 12.7318 58.3954 13.1125C57.6851 13.478 56.8766 14.1329 55.9698 15.0771C55.0631 16.0213 54.043 17.3082 52.9096 18.9377C51.7913 20.5673 50.5218 22.6461 49.1013 25.1742L47.9678 27.1845L43.6835 39.1091H40.3059L50.0987 12.0388H53.4536L49.4866 23.004C50.7259 20.8567 51.8593 19.0596 52.8869 17.6128C53.9146 16.1508 54.8666 14.9781 55.7431 14.0948C56.6197 13.1963 57.4433 12.5566 58.214 12.1759C58.9847 11.7952 59.7404 11.6048 60.4809 11.6048C61.4783 11.6048 62.2566 11.9018 62.8157 12.4957C63.39 13.0897 63.6771 13.8664 63.6771 14.8258C63.6771 15.2218 63.6242 15.6025 63.5184 15.968C63.4278 16.3183 63.2842 16.6229 63.0877 16.8818C62.9064 17.1407 62.6797 17.3463 62.4077 17.4986C62.1357 17.6509 61.8334 17.727 61.5009 17.727C61.2592 17.727 61.0174 17.6889 60.7756 17.6128C60.5489 17.5366 60.3449 17.4224 60.1635 17.2701C59.9822 17.1026 59.831 16.9046 59.7101 16.6762C59.6043 16.4477 59.5515 16.1812 59.5515 15.8766C59.5515 15.633 59.5892 15.3893 59.6648 15.1456C59.7555 14.8867 59.8764 14.6659 60.0275 14.4832C60.1786 14.2852 60.36 14.1253 60.5715 14.0034C60.7831 13.8816 61.0174 13.8207 61.2743 13.8207C61.4405 13.8207 61.5992 13.8359 61.7503 13.8664C61.7805 13.8968 61.8183 13.9273 61.8636 13.9577C61.9241 13.973 61.9694 13.9806 61.9997 13.9806C62.1206 13.9806 62.181 13.874 62.181 13.6608Z" fill="#5EA9BE"/>
<path d="M74.1273 39.5431C71.392 39.5431 69.2838 38.8273 67.8028 37.3958C66.3218 35.949 65.5813 33.8016 65.5813 30.9537C65.5813 30.177 65.6417 29.3547 65.7626 28.4866C65.8684 27.6185 66.0422 26.7276 66.284 25.8138C66.828 23.7731 67.5912 21.8846 68.5735 20.1485C69.5709 18.4123 70.7119 16.9122 71.9965 15.6482C73.281 14.3842 74.6638 13.3943 76.1448 12.6785C77.6258 11.9627 79.1144 11.6048 80.6105 11.6048C82.1217 11.6048 83.3081 11.9627 84.1694 12.6785C85.046 13.3943 85.4842 14.3994 85.4842 15.6939C85.4842 16.4249 85.3407 17.1407 85.0535 17.8412C84.7664 18.5418 84.3508 19.2043 83.8068 19.8287C83.2627 20.4531 82.6053 21.0394 81.8346 21.5877C81.079 22.1207 80.2251 22.5852 79.2731 22.9812C78.0943 23.4837 76.7946 23.8645 75.3741 24.1234C73.9535 24.367 72.3365 24.4889 70.523 24.4889C70.0848 25.7224 69.7372 27.0093 69.4803 28.3495C69.2385 29.6745 69.1176 31.0299 69.1176 32.4158C69.1176 34.5326 69.5558 36.0632 70.4323 37.0074C71.324 37.9364 72.7219 38.4009 74.626 38.4009C76.2128 38.4009 77.724 38.0963 79.1597 37.4872C80.5954 36.8627 81.9253 36.048 83.1494 35.0428C84.3735 34.0377 85.4918 32.8955 86.5043 31.6162C87.5168 30.3217 88.4009 29.0044 89.1565 27.6642L90.3353 25.5625L90.9473 25.9966L89.7686 28.0982C88.8316 29.7582 87.804 31.2888 86.6857 32.6899C85.5825 34.091 84.3735 35.3017 83.0587 36.3221C81.759 37.3272 80.3611 38.1192 78.865 38.6979C77.384 39.2614 75.8048 39.5431 74.1273 39.5431ZM81.2452 12.5186C80.2931 12.5186 79.3184 12.8003 78.321 13.3638C77.3387 13.9273 76.3866 14.7116 75.4647 15.7167C74.5429 16.7066 73.6815 17.8793 72.8805 19.2347C72.0796 20.5901 71.3844 22.0674 70.795 23.6665C72.4574 23.636 73.878 23.4913 75.0567 23.2324C76.2355 22.9583 77.2631 22.6156 78.1396 22.2045C78.8348 21.8846 79.5073 21.4734 80.1571 20.9709C80.8221 20.4531 81.4039 19.8667 81.9026 19.2119C82.4164 18.557 82.8245 17.8488 83.1267 17.0874C83.4441 16.3259 83.6027 15.534 83.6027 14.7116C83.6027 14.3004 83.5423 13.9577 83.4214 13.6836C83.3005 13.4095 83.1343 13.1887 82.9227 13.0211C82.7111 12.8384 82.4618 12.7089 82.1746 12.6328C81.8875 12.5566 81.5777 12.5186 81.2452 12.5186Z" fill="#5EA9BE"/>
<path d="M90.2673 25.7681C90.8113 24.1234 91.4612 22.6309 92.2168 21.2907C92.9724 19.9353 93.7885 18.7322 94.665 17.6813C95.5566 16.6305 96.486 15.7243 97.4532 14.9629C98.4355 14.2014 99.4102 13.577 100.377 13.0897C101.36 12.5871 102.319 12.214 103.256 11.9703C104.208 11.7266 105.1 11.6048 105.931 11.6048C106.793 11.6048 107.51 11.7419 108.085 12.016C108.659 12.2749 109.12 12.648 109.468 13.1354C109.83 13.6075 110.087 14.1862 110.238 14.8715C110.389 15.5416 110.465 16.2878 110.465 17.1102L112.301 12.0388H115.656L109.876 28.0297C109.664 28.6236 109.452 29.2328 109.241 29.8572C109.029 30.4664 108.84 31.0756 108.674 31.6848C108.523 32.2787 108.395 32.8574 108.289 33.4209C108.198 33.9692 108.153 34.4793 108.153 34.9515C108.153 36.0023 108.425 36.8399 108.969 37.4643C109.528 38.0887 110.389 38.4009 111.553 38.4009C112.566 38.4009 113.548 38.1877 114.5 37.7613C115.452 37.3196 116.389 36.6572 117.311 35.7738C118.248 34.8753 119.185 33.756 120.122 32.4158C121.059 31.0603 122.026 29.4765 123.023 27.6642L124.179 25.5625L124.791 25.9966L123.613 28.0982C122.509 30.0781 121.452 31.7914 120.439 33.2382C119.442 34.6697 118.444 35.8576 117.447 36.8018C116.449 37.7308 115.429 38.4238 114.387 38.8806C113.344 39.3223 112.233 39.5431 111.054 39.5431C110.132 39.5431 109.316 39.3984 108.606 39.1091C107.911 38.835 107.322 38.439 106.838 37.9212C106.369 37.4034 106.014 36.779 105.773 36.048C105.531 35.317 105.41 34.5022 105.41 33.6037C105.41 33.0097 105.463 32.3701 105.569 31.6848C105.674 30.9842 105.833 30.2608 106.045 29.5146C104.065 32.865 102.108 35.3779 100.173 37.0531C98.239 38.7131 96.2744 39.5431 94.2796 39.5431C93.3426 39.5431 92.5417 39.3756 91.8767 39.0406C91.2269 38.6903 90.6904 38.2105 90.2673 37.6014C89.8441 36.977 89.5343 36.2536 89.3379 35.4312C89.1414 34.5936 89.0432 33.6798 89.0432 32.6899C89.0432 31.6238 89.149 30.5045 89.3605 29.3318C89.5721 28.1439 89.8744 26.956 90.2673 25.7681ZM95.0957 38.4009C95.9117 38.4009 96.7429 38.1877 97.5892 37.7613C98.4355 37.3196 99.2742 36.7257 100.105 35.9794C100.952 35.218 101.768 34.3347 102.554 33.3295C103.339 32.3092 104.08 31.2279 104.775 30.0857C105.485 28.9282 106.135 27.7403 106.725 26.522C107.314 25.3036 107.82 24.1081 108.243 22.9355C108.682 21.7476 109.014 20.6206 109.241 19.5545C109.483 18.4733 109.604 17.5062 109.604 16.6533C109.604 15.8766 109.505 15.2294 109.309 14.7116C109.127 14.1786 108.878 13.7521 108.561 13.4323C108.259 13.0973 107.903 12.8612 107.495 12.7242C107.102 12.5871 106.694 12.5186 106.271 12.5186C105.425 12.5186 104.48 12.7851 103.438 13.3181C102.41 13.8359 101.36 14.6354 100.287 15.7167C99.2138 16.7828 98.1559 18.1382 97.1132 19.783C96.0855 21.4125 95.141 23.3314 94.2796 25.5397C93.5693 27.3824 93.0328 29.0881 92.6701 30.6568C92.3226 32.2254 92.1488 33.5351 92.1488 34.586C92.1488 35.7738 92.383 36.7105 92.8515 37.3958C93.3351 38.0659 94.0831 38.4009 95.0957 38.4009Z" fill="#5EA9BE"/>
<path d="M122.389 12.0388H129.008L131.161 6.05368H134.516L132.363 12.0388H139.163V12.9526H132.023L126.582 28.0297C126.371 28.6236 126.159 29.2328 125.948 29.8572C125.751 30.4816 125.57 31.0984 125.403 31.7076C125.252 32.3015 125.124 32.8803 125.018 33.4437C124.927 33.992 124.882 34.4946 124.882 34.9515C124.882 36.0023 125.162 36.8399 125.721 37.4643C126.295 38.0887 127.156 38.4009 128.305 38.4009C129.423 38.4009 130.511 38.1877 131.569 37.7613C132.627 37.3349 133.67 36.68 134.698 35.7967C135.725 34.9134 136.745 33.8016 137.758 32.4615C138.77 31.106 139.79 29.5069 140.818 27.6642L141.997 25.5625L142.609 25.9966L141.43 28.0982C140.236 30.2303 139.08 32.0274 137.962 33.4894C136.844 34.9362 135.733 36.1089 134.63 37.0074C133.541 37.906 132.431 38.5532 131.297 38.9492C130.179 39.3451 129.015 39.5431 127.806 39.5431C126.884 39.5431 126.068 39.3984 125.358 39.1091C124.648 38.835 124.058 38.439 123.59 37.9212C123.106 37.4034 122.744 36.779 122.502 36.048C122.245 35.317 122.117 34.5022 122.117 33.6037C122.117 32.8117 122.207 31.9437 122.389 30.9994C122.57 30.0552 122.849 29.0653 123.227 28.0297L128.668 12.9526H122.389V12.0388Z" fill="#5EA9BE"/>
<path d="M151.2 0H154.578L146.667 21.8618C147.694 20.1256 148.669 18.6179 149.591 17.3387C150.528 16.0442 151.457 14.9781 152.379 14.1405C153.301 13.2876 154.245 12.6556 155.213 12.2444C156.18 11.818 157.215 11.6048 158.318 11.6048C159.24 11.6048 160.048 11.7571 160.744 12.0617C161.454 12.3663 162.043 12.8003 162.512 13.3638C162.995 13.9121 163.358 14.5745 163.6 15.3512C163.842 16.1279 163.963 16.996 163.963 17.9555C163.963 18.6408 163.834 19.4479 163.577 20.3769C163.335 21.3059 163.026 22.2958 162.648 23.3467C162.27 24.3975 161.862 25.4788 161.424 26.5905C160.985 27.687 160.577 28.7531 160.2 29.7887C159.822 30.8243 159.504 31.7914 159.248 32.6899C159.006 33.5732 158.885 34.3271 158.885 34.9515C158.885 36.0023 159.157 36.8399 159.701 37.4643C160.26 38.0887 161.121 38.4009 162.285 38.4009C163.298 38.4009 164.272 38.1801 165.209 37.7384C166.161 37.2968 167.098 36.6343 168.02 35.751C168.957 34.8525 169.894 33.7331 170.831 32.3929C171.768 31.0375 172.743 29.4613 173.755 27.6642L174.934 25.5625L175.546 25.9966L174.367 28.0982C173.264 30.0628 172.206 31.7685 171.194 33.2153C170.196 34.6469 169.191 35.8348 168.179 36.779C167.182 37.708 166.161 38.4009 165.119 38.8578C164.076 39.3147 162.965 39.5431 161.786 39.5431C160.865 39.5431 160.048 39.3984 159.338 39.1091C158.643 38.835 158.054 38.439 157.57 37.9212C157.102 37.4034 156.746 36.779 156.505 36.048C156.263 35.317 156.142 34.5022 156.142 33.6037C156.142 32.9488 156.263 32.1645 156.505 31.2507C156.762 30.3217 157.079 29.3242 157.457 28.2581C157.835 27.1921 158.243 26.1032 158.681 24.9914C159.119 23.8645 159.527 22.7832 159.905 21.7476C160.283 20.712 160.593 19.7525 160.834 18.8692C161.091 17.9707 161.22 17.2244 161.22 16.6305C161.22 15.4426 160.94 14.4984 160.381 13.7978C159.837 13.0973 158.983 12.747 157.819 12.747C156.792 12.747 155.802 12.9907 154.85 13.478C153.898 13.9654 152.915 14.7421 151.903 15.8081C150.906 16.8589 149.855 18.222 148.752 19.8972C147.664 21.5724 146.478 23.6056 145.193 25.9966L140.433 39.1091H137.078L151.2 0Z" fill="#5EA9BE"/>
<path d="M195.63 21.542C196.099 19.6992 196.711 17.9478 197.467 16.2878C198.237 14.6278 199.114 13.0897 200.096 11.6733C201.078 10.2418 202.159 8.95488 203.338 7.81268C204.517 6.67047 205.756 5.69579 207.055 4.88864C208.355 4.06625 209.7 3.44184 211.09 3.01542C212.481 2.57377 213.886 2.35294 215.307 2.35294C218.163 2.35294 220.347 3.24386 221.858 5.0257C223.369 6.80754 224.125 9.38892 224.125 12.7698C224.125 14.2166 223.981 15.7396 223.694 17.3387C223.422 18.9377 223.022 20.5445 222.493 22.1588C221.918 23.8797 221.223 25.5168 220.407 27.0702C219.606 28.6236 218.715 30.0628 217.732 31.3878C216.75 32.6975 215.7 33.8854 214.581 34.9515C213.463 36.0175 212.299 36.9237 211.09 37.6699C209.881 38.4161 208.65 38.9872 207.395 39.3832C206.141 39.7944 204.894 40 203.655 40C202.25 40 200.995 39.7411 199.892 39.2233C198.789 38.7055 197.852 37.9593 197.081 36.9846C196.311 35.9947 195.721 34.7915 195.313 33.3752C194.92 31.9437 194.724 30.3293 194.724 28.5323C194.724 27.4205 194.799 26.2783 194.95 25.1057C195.102 23.9178 195.328 22.7299 195.63 21.542ZM203.995 38.8806C205.491 38.8806 207.018 38.4466 208.574 37.5785C210.146 36.7105 211.657 35.4997 213.108 33.9463C214.574 32.3929 215.934 30.5502 217.188 28.418C218.458 26.2707 219.546 23.9178 220.452 21.3592C221.102 19.5165 221.601 17.7118 221.949 15.9452C222.311 14.1633 222.493 12.5566 222.493 11.1251C222.493 9.89149 222.349 8.78736 222.062 7.81268C221.79 6.82277 221.382 5.99277 220.838 5.32267C220.309 4.63735 219.659 4.11955 218.888 3.76927C218.118 3.40377 217.249 3.22102 216.281 3.22102C215.239 3.22102 214.181 3.42661 213.108 3.83781C212.035 4.249 210.97 4.83533 209.912 5.5968C208.869 6.34304 207.849 7.25681 206.851 8.33809C205.869 9.40415 204.94 10.6073 204.063 11.9475C203.187 13.2724 202.378 14.7116 201.638 16.265C200.897 17.8184 200.255 19.4479 199.711 21.1536C199.197 22.8136 198.804 24.4508 198.532 26.0651C198.26 27.6642 198.124 29.1643 198.124 30.5654C198.124 33.2762 198.623 35.3398 199.62 36.7561C200.618 38.1725 202.076 38.8806 203.995 38.8806Z" fill="#5EA9BE"/>
<path d="M234.824 12.0388H238.179L234.62 21.8618C235.633 20.1256 236.608 18.6179 237.545 17.3387C238.482 16.0442 239.411 14.9781 240.333 14.1405C241.27 13.2876 242.214 12.6556 243.166 12.2444C244.118 11.818 245.123 11.6048 246.181 11.6048C247.133 11.6048 247.965 11.7647 248.675 12.0845C249.385 12.3891 249.982 12.8155 250.466 13.3638C250.949 13.8968 251.312 14.5212 251.554 15.237C251.795 15.9528 251.916 16.7066 251.916 17.4986C251.916 18.3666 251.788 19.3109 251.531 20.3312C251.289 21.3516 250.979 22.4024 250.602 23.4837C250.224 24.565 249.816 25.6615 249.378 26.7733C248.939 27.8698 248.531 28.9282 248.153 29.9486C247.776 30.969 247.458 31.9284 247.201 32.827C246.96 33.7103 246.839 34.487 246.839 35.1571C246.839 36.086 247.118 36.8627 247.677 37.4872C248.252 38.0963 249.143 38.4009 250.352 38.4009C251.319 38.4009 252.264 38.1801 253.186 37.7384C254.123 37.2816 255.052 36.6115 255.974 35.7282C256.911 34.8296 257.848 33.7103 258.785 32.3701C259.737 31.0147 260.712 29.446 261.709 27.6642L262.888 25.5625L263.5 25.9966L262.321 28.0982C261.233 30.0171 260.19 31.7 259.193 33.1468C258.196 34.5783 257.198 35.7662 256.201 36.7105C255.203 37.6547 254.183 38.3628 253.14 38.835C252.113 39.3071 251.017 39.5431 249.854 39.5431C248.901 39.5431 248.063 39.3984 247.337 39.1091C246.627 38.8197 246.03 38.4238 245.547 37.9212C245.063 37.4186 244.7 36.8399 244.458 36.185C244.217 35.5149 244.096 34.8068 244.096 34.0605C244.096 33.2686 244.217 32.3853 244.458 31.4106C244.715 30.4207 245.033 29.3927 245.411 28.3267C245.788 27.2454 246.196 26.1565 246.635 25.06C247.073 23.9482 247.481 22.8745 247.859 21.8389C248.237 20.7881 248.546 19.7982 248.788 18.8692C249.045 17.925 249.174 17.0874 249.174 16.3564C249.174 15.8386 249.105 15.3588 248.969 14.9172C248.833 14.4755 248.614 14.0948 248.312 13.775C248.025 13.4552 247.655 13.2039 247.201 13.0211C246.763 12.8384 246.234 12.747 245.615 12.747C244.662 12.747 243.733 12.9831 242.826 13.4552C241.92 13.9121 241.005 14.605 240.083 15.534C239.177 16.463 238.247 17.628 237.295 19.0291C236.358 20.415 235.368 22.0369 234.326 23.8949L233.147 25.9966L228.386 39.1091H225.032L234.824 12.0388Z" fill="#5EA9BE"/>
</svg>
