<svg width="48" height="50" viewBox="0 0 48 50" fill="none" xmlns="http://www.w3.org/2000/svg">
<path d="M20 30H25V12.5H20V30ZM27.5 26.25H32.5V15H27.5V26.25ZM12.5 25H17.5V15H12.5V25ZM7.5 50V39.25C5.125 37.0833 3.28167 34.5525 1.97 31.6575C0.658334 28.7625 0.00166667 25.71 0 22.5C0 16.25 2.1875 10.9375 6.5625 6.5625C10.9375 2.1875 16.25 0 22.5 0C27.7083 0 32.3233 1.53167 36.345 4.595C40.3667 7.65833 42.9808 11.6475 44.1875 16.5625L47.4375 29.375C47.6458 30.1667 47.5 30.8858 47 31.5325C46.5 32.1792 45.8333 32.5017 45 32.5H40V40C40 41.375 39.5108 42.5525 38.5325 43.5325C37.5542 44.5125 36.3767 45.0017 35 45H30V50H25V40H35V27.5H41.75L39.375 17.8125C38.4167 14.0208 36.375 10.9375 33.25 8.5625C30.125 6.1875 26.5417 5 22.5 5C17.6667 5 13.5417 6.6875 10.125 10.0625C6.70833 13.4375 5 17.5417 5 22.375C5 24.875 5.51083 27.25 6.5325 29.5C7.55417 31.75 9.00167 33.75 10.875 35.5L12.5 37V50H7.5Z" fill="#5EA9BE"/>
</svg>
