<svg width="534" height="451" viewBox="0 0 534 451" fill="none" xmlns="http://www.w3.org/2000/svg">
<g clip-path="url(#clip0_303_48)">
<path d="M446.349 366.95C447.632 358.051 453.563 350.569 461.515 347C462.648 346.491 463.727 347.794 463.024 348.818C461.134 351.577 459.838 354.766 459.342 358.201C457.212 372.973 469.44 385.646 484.279 384.045C487.729 383.672 490.963 382.491 493.787 380.7C494.836 380.035 496.099 381.159 495.551 382.274C491.7 390.094 484.01 395.753 475.072 396.717C457.98 398.562 443.895 383.965 446.349 366.95Z" fill="#FDE364"/>
</g>
<defs>
<clipPath id="clip0_303_48">
<rect width="51" height="51" fill="white" transform="matrix(-0.99984 -0.0178635 -0.0178635 0.99984 496.902 346.911)"/>
</clipPath>
</defs>
</svg>
