<svg width="23" height="27" viewBox="0 0 23 27" fill="none" xmlns="http://www.w3.org/2000/svg">
<path d="M22.8072 13.8978C22.808 14.2351 22.7215 14.5669 22.5561 14.861C22.3907 15.155 22.1521 15.4012 21.8633 15.5757L3.96876 26.5226C3.66706 26.7073 3.32152 26.8082 2.96781 26.8147C2.61411 26.8213 2.26507 26.7333 1.95674 26.5598C1.65134 26.3891 1.39694 26.1401 1.2197 25.8384C1.04245 25.5367 0.948752 25.1933 0.948242 24.8434V2.95212C0.948752 2.60224 1.04245 2.2588 1.2197 1.95713C1.39694 1.65546 1.65134 1.40645 1.95674 1.2357C2.26507 1.06225 2.61411 0.974259 2.96781 0.980809C3.32152 0.98736 3.66706 1.08821 3.96876 1.27296L21.8633 12.2198C22.1521 12.3943 22.3907 12.6405 22.5561 12.9345C22.7215 13.2286 22.808 13.5604 22.8072 13.8978Z" fill="white"/>
</svg>
