<svg width="56" height="44" viewBox="0 0 56 44" fill="none" xmlns="http://www.w3.org/2000/svg">
<path d="M54 2.28583e-06H39.7C36.6313 2.28583e-06 33.6312 0.883008 31.05 2.54882L28 4.50897L24.95 2.54882C22.3713 0.883328 19.368 -0.00164152 16.3 2.28583e-06H2C0.89375 2.28583e-06 0 0.895533 0 2.00399V37.5747C0 38.6832 0.89375 39.5787 2 39.5787H16.3C19.3687 39.5787 22.3688 40.4617 24.95 42.1275L27.725 43.9186C27.8062 43.9687 27.9 44 27.9937 44C28.0875 44 28.1813 43.975 28.2625 43.9186L31.0375 42.1275C33.625 40.4617 36.6313 39.5787 39.7 39.5787H54C55.1063 39.5787 56 38.6832 56 37.5747V2.00399C56 0.895533 55.1063 2.28583e-06 54 2.28583e-06ZM16.3 35.0697H4.5V4.50897H16.3C18.5125 4.50897 20.6625 5.14148 22.5187 6.33761L25.5688 8.29775L26 8.57956V37.5121C23.025 35.9089 19.7 35.0697 16.3 35.0697ZM51.5 35.0697H39.7C36.3 35.0697 32.975 35.9089 30 37.5121V8.57956L30.4313 8.29775L33.4813 6.33761C35.3375 5.14148 37.4875 4.50897 39.7 4.50897H51.5V35.0697ZM20.8062 12.5249H9.19375C8.95 12.5249 8.75 12.7378 8.75 12.9946V15.8127C8.75 16.0695 8.95 16.2824 9.19375 16.2824H20.8C21.0437 16.2824 21.2437 16.0695 21.2437 15.8127V12.9946C21.25 12.7378 21.05 12.5249 20.8062 12.5249ZM34.75 12.9946V15.8127C34.75 16.0695 34.95 16.2824 35.1937 16.2824H46.8C47.0438 16.2824 47.2438 16.0695 47.2438 15.8127V12.9946C47.2438 12.7378 47.0438 12.5249 46.8 12.5249H35.1937C34.95 12.5249 34.75 12.7378 34.75 12.9946ZM20.8062 21.2923H9.19375C8.95 21.2923 8.75 21.5053 8.75 21.762V24.5801C8.75 24.8369 8.95 25.0498 9.19375 25.0498H20.8C21.0437 25.0498 21.2437 24.8369 21.2437 24.5801V21.762C21.25 21.5053 21.05 21.2923 20.8062 21.2923ZM46.8063 21.2923H35.1937C34.95 21.2923 34.75 21.5053 34.75 21.762V24.5801C34.75 24.8369 34.95 25.0498 35.1937 25.0498H46.8C47.0438 25.0498 47.2438 24.8369 47.2438 24.5801V21.762C47.25 21.5053 47.05 21.2923 46.8063 21.2923Z" fill="#5EA9BE"/>
</svg>
