<svg width="34" height="35" viewBox="0 0 34 35" fill="none" xmlns="http://www.w3.org/2000/svg">
<path d="M9.81192 1.34393C10.1322 1.66429 10.3121 2.09873 10.3121 2.55172C10.3121 3.00471 10.1322 3.43915 9.81192 3.75951L6.74888 6.82255H20.1354C22.8384 6.82255 25.4807 7.62409 27.7282 9.1258C29.9756 10.6275 31.7273 12.762 32.7617 15.2592C33.7961 17.7565 34.0668 20.5044 33.5394 23.1555C33.0121 25.8065 31.7105 28.2417 29.7992 30.153C27.8879 32.0643 25.4527 33.366 22.8016 33.8933C20.1505 34.4206 17.4026 34.15 14.9054 33.1156C12.4081 32.0812 10.2737 30.3295 8.77196 28.082C7.27025 25.8345 6.46871 23.1922 6.46871 20.4892C6.46871 20.0361 6.6487 19.6016 6.96907 19.2812C7.28944 18.9609 7.72397 18.7809 8.17704 18.7809C8.63012 18.7809 9.06464 18.9609 9.38502 19.2812C9.70539 19.6016 9.88538 20.0361 9.88538 20.4892C9.88538 22.5165 10.4865 24.4982 11.6128 26.1838C12.7391 27.8694 14.3399 29.1832 16.2129 29.959C18.0858 30.7348 20.1467 30.9378 22.1351 30.5423C24.1234 30.1468 25.9497 29.1706 27.3832 27.7371C28.8167 26.3036 29.7929 24.4772 30.1884 22.4889C30.5839 20.5006 30.3809 18.4397 29.6051 16.5667C28.8293 14.6938 27.5156 13.0929 25.83 11.9667C24.1444 10.8404 22.1626 10.2392 20.1354 10.2392H6.74888L9.81192 13.3023C10.1231 13.6245 10.2953 14.056 10.2914 14.5039C10.2875 14.9518 10.1078 15.3803 9.79111 15.697C9.47437 16.0138 9.0459 16.1934 8.59798 16.1973C8.15006 16.2012 7.71853 16.029 7.39634 15.7178L1.41717 9.73868C1.09691 9.41832 0.916992 8.98387 0.916992 8.53089C0.916992 8.0779 1.09691 7.64345 1.41717 7.32309L7.39634 1.34393C7.7167 1.02366 8.15114 0.84375 8.60413 0.84375C9.05712 0.84375 9.49156 1.02366 9.81192 1.34393Z" fill="white"/>
</svg>
