<svg width="55" height="55" viewBox="0 0 55 55" fill="none" xmlns="http://www.w3.org/2000/svg">
<path fill-rule="evenodd" clip-rule="evenodd" d="M24.625 8.4375C24.625 9.34918 24.9872 10.2235 25.6318 10.8682C26.2765 11.5128 27.1508 11.875 28.0625 11.875H35.806L25.631 22.05C25.1508 22.5309 24.8238 23.1433 24.6915 23.8099C24.5592 24.4766 24.6275 25.1674 24.8877 25.7953C25.1479 26.4231 25.5884 26.9598 26.1534 27.3373C26.7185 27.7149 27.3829 27.9165 28.0625 27.9167H44.1042C44.5556 27.9167 45.0026 27.8278 45.4196 27.655C45.8367 27.4823 46.2156 27.229 46.5348 26.9098C46.854 26.5906 47.1073 26.2117 47.28 25.7946C47.4528 25.3776 47.5417 24.9306 47.5417 24.4792C47.5417 24.0277 47.4528 23.5807 47.28 23.1637C47.1073 22.7466 46.854 22.3677 46.5348 22.0485C46.2156 21.7293 45.8367 21.4761 45.4196 21.3033C45.0026 21.1306 44.5556 21.0417 44.1042 21.0417H36.3606L46.5356 10.8667C47.0159 10.3858 47.3428 9.77335 47.4752 9.10673C47.6075 8.44011 47.5392 7.74922 47.279 7.12138C47.0188 6.49353 46.5783 5.95692 46.0132 5.57933C45.4481 5.20175 44.7838 5.00014 44.1042 5H28.0625C27.1508 5 26.2765 5.36216 25.6318 6.00682C24.9872 6.65148 24.625 7.52582 24.625 8.4375ZM7.4375 23.3333C6.52582 23.3333 5.65148 22.9712 5.00682 22.3265C4.36216 21.6819 4 20.8075 4 19.8958C4 18.9842 4.36216 18.1098 5.00682 17.4652C5.65148 16.8205 6.52582 16.4583 7.4375 16.4583H18.8958C19.5753 16.4589 20.2393 16.6609 20.804 17.0386C21.3688 17.4164 21.8089 17.953 22.0688 18.5808C22.3287 19.2085 22.3968 19.8992 22.2644 20.5656C22.132 21.232 21.8051 21.8443 21.325 22.325L15.7379 27.9167H18.8958C19.8075 27.9167 20.6819 28.2788 21.3265 28.9235C21.9712 29.5681 22.3333 30.4425 22.3333 31.3542C22.3333 32.2659 21.9712 33.1402 21.3265 33.7848C20.6819 34.4295 19.8075 34.7917 18.8958 34.7917H7.4375C6.75807 34.7911 6.09405 34.5891 5.52931 34.2114C4.96457 33.8336 4.52445 33.297 4.26452 32.6692C4.00459 32.0415 3.93652 31.3508 4.06891 30.6844C4.2013 30.018 4.5282 29.4057 5.00833 28.925L10.5977 23.3333H7.4375ZM25.7708 39.375C24.8592 39.375 23.9848 39.0128 23.3402 38.3682C22.6955 37.7235 22.3333 36.8492 22.3333 35.9375C22.3333 35.0258 22.6955 34.1515 23.3402 33.5068C23.9848 32.8622 24.8592 32.5 25.7708 32.5H34.9375C35.6169 32.5006 36.281 32.7025 36.8457 33.0803C37.4104 33.458 37.8506 33.9947 38.1105 34.6224C38.3704 35.2502 38.4385 35.9409 38.3061 36.6073C38.1737 37.2737 37.8468 37.8859 37.3667 38.3667L34.069 41.6667H34.9375C35.8492 41.6667 36.7235 42.0288 37.3682 42.6735C38.0128 43.3181 38.375 44.1925 38.375 45.1042C38.375 46.0159 38.0128 46.8902 37.3682 47.5348C36.7235 48.1795 35.8492 48.5417 34.9375 48.5417H25.7708C25.0914 48.5411 24.4274 48.3391 23.8626 47.9614C23.2979 47.5836 22.8578 47.047 22.5979 46.4192C22.3379 45.7915 22.2699 45.1008 22.4022 44.4344C22.5346 43.768 22.8615 43.1557 23.3417 42.675L26.6394 39.375H25.7708Z" fill="#5EA9BE"/>
</svg>
