<svg width="534" height="451" viewBox="0 0 534 451" fill="none" xmlns="http://www.w3.org/2000/svg">
<g clip-path="url(#clip0_303_47)">
<path d="M93.8707 84.5978L83.5723 77.6227C83.703 75.5962 83.5419 73.5614 83.0938 71.5807C86.1031 68.726 89.1151 65.8721 92.1269 63.0193C92.9505 62.2385 92.2528 60.8679 91.1347 61.0829L78.9476 63.4272C77.5954 61.8736 76.0206 60.529 74.2743 59.437C74.3862 55.2384 74.4991 51.0402 74.6141 46.8321C74.6451 45.7167 73.1808 45.24 72.5508 46.1663C70.1937 49.6507 67.8368 53.1248 65.4778 56.6086C63.4587 56.4833 61.432 56.6488 59.46 57.1001C56.5854 54.0708 53.713 51.0317 50.8385 48.0024C50.0593 47.1804 48.6875 47.8788 48.9025 48.9969L51.2693 61.2963C49.7369 62.6463 48.409 64.212 47.3273 65.9442L34.9467 65.6096C33.8319 65.5798 33.3526 67.0454 34.2808 67.6728L44.5328 74.6161C44.4004 76.6921 44.5736 78.7762 45.0468 80.8019C42.0532 83.6375 39.0599 86.4722 36.0679 89.3094C35.2424 90.0896 35.9398 91.4611 37.0576 91.247C41.1056 90.4676 45.1546 89.6886 49.203 88.9114C50.5522 90.4467 52.1178 91.7774 53.8503 92.8617C53.7358 96.99 53.6264 101.116 53.5153 105.24C53.4853 106.359 54.9512 106.834 55.5786 105.906C57.8886 102.496 60.2019 99.0852 62.5104 95.6733C64.5714 95.8116 66.6415 95.6466 68.6547 95.1838L77.0995 104.096C77.1703 104.208 77.2636 104.304 77.3736 104.378C77.4835 104.451 77.6077 104.501 77.738 104.524C78.0018 104.592 78.2705 104.548 78.5059 104.43C78.7628 104.311 78.9775 104.109 79.084 103.834C79.1409 103.714 79.1721 103.582 79.1757 103.449C79.1792 103.316 79.1551 103.183 79.1047 103.06C78.3342 99.0464 77.5598 95.0283 76.789 91.0125C78.3315 89.6503 79.6685 88.0718 80.7582 86.326C84.9045 86.4369 89.0566 86.5496 93.2033 86.6626C94.3209 86.6933 94.7977 85.2258 93.8707 84.5978Z" fill="#FBB041"/>
<path d="M58.409 93.0236C67.8176 96.0601 77.9063 90.8944 80.9427 81.4858C83.9792 72.0772 78.8135 61.9885 69.4049 58.9521C59.9963 55.9156 49.9076 61.0813 46.8712 70.4899C43.8347 79.8985 49.0004 89.9872 58.409 93.0236Z" fill="#FDE364"/>
</g>
<defs>
<clipPath id="clip0_303_47">
<rect width="64" height="64" fill="white" transform="translate(43.6562 36) rotate(17.8865)"/>
</clipPath>
</defs>
</svg>
