<svg width="40" height="34" viewBox="0 0 40 34" fill="none" xmlns="http://www.w3.org/2000/svg">
<path d="M0.468909 6.06243C0.468667 5.75455 0.529086 5.44964 0.646714 5.16512C0.764343 4.8806 0.936876 4.62205 1.15446 4.40422C2.03338 3.59376 3.02881 2.9196 4.10758 2.40422C6.6252 1.18545 9.39069 0.565773 12.1877 0.593676C16.0216 0.593676 18.8283 2.46282 21.3009 4.1093C23.4982 5.57414 25.4025 6.84368 27.8127 6.84368C32.9103 6.84368 35.4455 4.48625 35.5509 4.38664C35.7651 4.17139 36.0204 4.00134 36.3015 3.8866C36.5827 3.77185 36.884 3.71475 37.1877 3.71868C37.6515 3.71831 38.105 3.85557 38.4907 4.11308C38.8765 4.37059 39.1772 4.73677 39.3547 5.16526C39.5323 5.59375 39.5787 6.06529 39.4881 6.52018C39.3975 6.97506 39.174 7.39284 38.8459 7.72063C37.9669 8.53109 36.9715 9.20525 35.8927 9.72063C33.3751 10.9394 30.6096 11.5591 27.8127 11.5312C23.9787 11.5312 21.172 9.66204 18.6994 8.01555C16.5021 6.55071 14.5978 5.28118 12.1877 5.28118C7.09 5.28118 4.57047 7.62493 4.47086 7.72063C4.14308 8.04878 3.72529 8.2723 3.27041 8.36289C2.81552 8.45347 2.34399 8.40705 1.91549 8.22951C1.487 8.05196 1.12082 7.75128 0.863315 7.36551C0.605805 6.97974 0.468544 6.52624 0.468909 6.06243ZM37.1877 25.5937C36.884 25.5898 36.5827 25.6469 36.3015 25.7616C36.0204 25.8763 35.7651 26.0464 35.5509 26.2616C35.4455 26.3613 32.9103 28.7187 27.8127 28.7187C25.3966 28.7187 23.4982 27.4531 21.3009 25.9843C18.8263 24.3339 16.0275 22.4687 12.1877 22.4687C9.39069 22.4408 6.6252 23.0605 4.10758 24.2792C3.02881 24.7946 2.03338 25.4688 1.15446 26.2792C0.714155 26.7195 0.466797 27.3167 0.466797 27.9394C0.466797 28.5621 0.714155 29.1592 1.15446 29.5995C1.59476 30.0398 2.19193 30.2872 2.81461 30.2872C3.43729 30.2872 4.03447 30.0398 4.47477 29.5995C4.57047 29.4999 7.09 27.1562 12.1877 27.1562C14.6037 27.1562 16.5021 28.4218 18.6994 29.8906C21.174 31.5409 23.9728 33.4062 27.8127 33.4062C30.6096 33.4341 33.3751 32.8144 35.8927 31.5956C36.9715 31.0802 37.9669 30.4061 38.8459 29.5956C39.174 29.2678 39.3975 28.8501 39.4881 28.3952C39.5787 27.9403 39.5323 27.4688 39.3547 27.0403C39.1772 26.6118 38.8765 26.2456 38.4907 25.9881C38.105 25.7306 37.6515 25.5933 37.1877 25.5937ZM37.1877 14.6562C36.884 14.6523 36.5827 14.7094 36.3015 14.8241C36.0204 14.9388 35.7651 15.1089 35.5509 15.3241C35.4455 15.4238 32.9103 17.7812 27.8127 17.7812C25.3966 17.7812 23.4982 16.5156 21.3009 15.0468C18.8263 13.3964 16.0275 11.5312 12.1877 11.5312C9.39069 11.5033 6.6252 12.123 4.10758 13.3417C3.02881 13.8571 2.03338 14.5313 1.15446 15.3417C0.714155 15.782 0.466797 16.3792 0.466797 17.0019C0.466797 17.6246 0.714155 18.2217 1.15446 18.662C1.59476 19.1023 2.19193 19.3497 2.81461 19.3497C3.43729 19.3497 4.03447 19.1023 4.47477 18.662C4.57047 18.5624 7.09 16.2187 12.1877 16.2187C14.6037 16.2187 16.5021 17.4843 18.6994 18.9531C21.174 20.6034 23.9728 22.4687 27.8127 22.4687C30.6096 22.4966 33.3751 21.8769 35.8927 20.6581C36.9715 20.1427 37.9669 19.4686 38.8459 18.6581C39.174 18.3303 39.3975 17.9126 39.4881 17.4577C39.5787 17.0028 39.5323 16.5313 39.3547 16.1028C39.1772 15.6743 38.8765 15.3081 38.4907 15.0506C38.105 14.7931 37.6515 14.6558 37.1877 14.6562Z" fill="#5EA9BE"/>
</svg>
